<svg width="722" height="458" viewBox="0 0 722 458" fill="none" xmlns="http://www.w3.org/2000/svg">
<g id="CardBack">
<g id="Rectangle 1016" filter="url(#filter0_bi_523_654)">
<rect x="3.05176e-05" width="722" height="458" rx="25" fill="url(#paint0_linear_523_654)"/>
</g>
<text id="5032 9334 3764 9846" transform="matrix(0 -1 1 0 558 418)" fill="#FFFDFA" xml:space="preserve" style="white-space: pre" font-family="Montserrat" font-size="21" font-weight="600" letter-spacing="0.1em"><tspan x="0" y="22.0285">5032 9334 3764 9846</tspan></text>
<g id="Group 354">
<g id="Group 345">
<g id="nickel">
<path d="M80.4062 400.777C79.2338 400.777 78.3174 401.087 77.657 401.707C76.9832 402.327 76.6463 403.149 76.6463 404.173C76.6463 404.874 76.8013 405.581 77.1112 406.295C77.4212 407.01 78.0007 407.704 78.8497 408.378H86.9154V404.981H92.4542V418H86.9154V414.927H77.0506V417.959H71.5117V408.418H73.3513C72.664 407.542 72.1249 406.565 71.7341 405.487C71.3298 404.395 71.1276 403.25 71.1276 402.05C71.1276 399.53 71.8352 397.59 73.2502 396.228C74.6517 394.867 76.7069 394.187 79.4157 394.187H86.9154V391.215H92.4542V400.777H80.4062Z" fill="#FFFDFA"/>
<path d="M71.5117 388.486V379.086H86.9154V376.175H92.4542V388.486H86.9154V385.333H77.0506V388.486H71.5117Z" fill="#FFFDFA"/>
<path d="M78.7486 356.83C78.0209 357.409 77.4751 358.056 77.1112 358.77C76.7339 359.485 76.5722 360.327 76.6261 361.297C76.5722 362.079 76.68 362.793 76.9495 363.44C77.219 364.073 77.5964 364.626 78.0815 365.098C78.5667 365.556 79.1462 365.913 79.82 366.169C80.4803 366.425 81.2283 366.553 82.0638 366.553C82.805 366.553 83.5058 366.418 84.1662 366.149C84.8265 365.879 85.3993 365.515 85.8844 365.057C86.3561 364.586 86.7267 364.033 86.9962 363.4C87.2658 362.753 87.4275 362.052 87.4814 361.297C87.4275 360.664 87.2995 360.091 87.0973 359.579C86.8817 359.053 86.6122 358.589 86.2887 358.184C85.9518 357.78 85.5812 357.436 85.1769 357.153C84.7591 356.857 84.3683 356.628 84.0045 356.466L85.5408 350.907C86.3494 351.136 87.1917 351.534 88.0676 352.1C88.9436 352.652 89.7455 353.38 90.4732 354.283C91.1874 355.172 91.7804 356.237 92.2521 357.477C92.7238 358.703 92.9596 360.105 92.9596 361.681C92.9596 363.285 92.6699 364.761 92.0904 366.108C91.4974 367.456 90.6955 368.615 89.6848 369.585C88.6741 370.556 87.4881 371.317 86.127 371.87C84.7659 372.409 83.3037 372.678 81.7404 372.678C80.1906 372.678 78.7553 372.402 77.4346 371.849C76.1005 371.283 74.9415 370.508 73.9577 369.525C72.9604 368.541 72.1855 367.375 71.633 366.028C71.0805 364.666 70.8312 363.191 70.8851 361.601C70.8312 360.468 70.9592 359.37 71.2691 358.306C71.5791 357.241 72.044 356.23 72.664 355.273V351.251H78.7486V356.83Z" fill="#FFFDFA"/>
<path d="M61 349.088V339.647H79.1327V336.11L77.0506 334.654H71.5117V323.819H77.0506V327.579L81.5585 331.48L86.3696 327.498V324.021H92.4542V329.702L83.4789 336.494V339.647H86.9154V337.504H92.4542V349.088H86.9154V345.853H66.5389V349.088H61Z" fill="#FFFDFA"/>
<path d="M83.2969 314.925L83.9236 314.864C84.53 314.716 85.0624 314.466 85.5206 314.116C85.9788 313.752 86.3628 313.328 86.6728 312.842C86.9828 312.357 87.2186 311.818 87.3803 311.225C87.5286 310.632 87.6027 310.033 87.6027 309.426C87.6027 308.82 87.569 308.247 87.5016 307.708C87.4208 307.155 87.3197 306.623 87.1984 306.111C87.0636 305.599 86.9154 305.1 86.7537 304.615C86.5785 304.13 86.3965 303.638 86.2079 303.139L90.3519 300.916C90.8236 301.684 91.2279 302.391 91.5648 303.038C91.8882 303.672 92.1577 304.312 92.3734 304.959C92.589 305.606 92.744 306.293 92.8383 307.021C92.9461 307.748 93 308.597 93 309.568C93 311.387 92.7035 313.004 92.1106 314.419C91.5041 315.834 90.6888 317.027 89.6646 317.997C88.6404 318.954 87.441 319.689 86.0664 320.201C84.6918 320.699 83.2363 320.949 81.7 320.949C80.1636 320.949 78.7217 320.686 77.374 320.16C76.0264 319.621 74.8539 318.866 73.8566 317.896C72.8459 316.926 72.0508 315.767 71.4713 314.419C70.8918 313.072 70.6021 311.576 70.6021 309.932C70.6021 308.287 70.8783 306.832 71.4309 305.565C71.9699 304.285 72.7246 303.207 73.6949 302.331C74.6517 301.455 75.7838 300.781 77.091 300.309C78.3847 299.838 79.7796 299.582 81.2755 299.541C81.6124 299.501 81.9493 299.48 82.2862 299.48C82.6096 299.467 82.9465 299.474 83.2969 299.501V314.925ZM75.6557 310.093C75.6557 310.848 75.7501 311.495 75.9388 312.034C76.1139 312.559 76.3633 313.004 76.6867 313.368C76.9967 313.732 77.3538 314.022 77.7581 314.237C78.1624 314.453 78.5869 314.621 79.0316 314.743V305.99C78.5734 306.084 78.1422 306.219 77.7379 306.394C77.3336 306.569 76.9764 306.812 76.6665 307.122C76.3565 307.432 76.1139 307.829 75.9388 308.314C75.7501 308.786 75.6557 309.379 75.6557 310.093Z" fill="#FFFDFA"/>
<path d="M61 296.812V287.372H86.9154V284.137H92.4542V296.812H86.9154V293.578H66.5389V296.812H61Z" fill="#FFFDFA"/>
</g>
<path id="nickel_2" d="M63.3652 385.393C63.7964 385.569 64.2613 385.656 64.76 385.656C65.2586 385.656 65.7303 385.569 66.175 385.393C66.6063 385.205 66.9836 384.949 67.307 384.625C67.6305 384.302 67.8865 383.924 68.0752 383.493C68.2639 383.048 68.3582 382.57 68.3582 382.058C68.3582 381.573 68.2639 381.115 68.0752 380.683C67.8865 380.252 67.6305 379.875 67.307 379.551C66.9836 379.228 66.6063 378.972 66.175 378.783C65.7303 378.594 65.2586 378.5 64.76 378.5C64.2613 378.5 63.7964 378.594 63.3652 378.783C62.9204 378.972 62.5363 379.228 62.2129 379.551C61.8895 379.875 61.6334 380.252 61.4448 380.683C61.2561 381.115 61.1617 381.573 61.1617 382.058C61.1617 382.57 61.2561 383.048 61.4448 383.493C61.6334 383.924 61.8895 384.302 62.2129 384.625C62.5363 384.949 62.9204 385.205 63.3652 385.393Z" fill="#FFFDFA"/>
</g>
</g>
<path id="Rectangle 1017" d="M3.05176e-05 32.6561L722 32.6562L722 140L2.58254e-05 140L3.05176e-05 32.6561Z" fill="#D6D6D6"/>
<g id="Group 355">
<g id="Group 349">
<text id="02/20" transform="matrix(0 -1 1 0 657 378)" fill="#FEFBFF" xml:space="preserve" style="white-space: pre" font-family="Rubik" font-size="18" letter-spacing="0em"><tspan x="0" y="18.665">02/20</tspan></text>
<text id="member since" transform="matrix(0 -1 1 0 660 418)" fill="#FEFBFF" xml:space="preserve" style="white-space: pre" font-family="Source Sans Pro" font-size="6" letter-spacing="0.1em"><tspan x="0" y="6.133">MEMBER&#10;</tspan><tspan x="0" y="14.133">SINCE</tspan></text>
</g>
<g id="Group 348">
<text id="02/27" transform="matrix(0 -1 1 0 596 388)" fill="#FEFBFF" xml:space="preserve" style="white-space: pre" font-family="Rubik" font-size="18" letter-spacing="0em"><tspan x="0" y="18.665">02/27</tspan></text>
<text id="valid thru" transform="matrix(0 -1 1 0 599 418)" fill="#FEFBFF" xml:space="preserve" style="white-space: pre" font-family="Source Sans Pro" font-size="6" letter-spacing="0.1em"><tspan x="0" y="6.133">VALID&#10;</tspan><tspan x="0" y="14.133">THRU</tspan></text>
</g>
<g id="Group 347">
<text id="123" transform="matrix(0 -1 1 0 626 375)" fill="#FEFBFF" xml:space="preserve" style="white-space: pre" font-family="Rubik" font-size="18" letter-spacing="0em"><tspan x="0" y="18.665">123</tspan></text>
<text id="security code" transform="matrix(0 -1 1 0 629 418)" fill="#FEFBFF" xml:space="preserve" style="white-space: pre" font-family="Source Sans Pro" font-size="6" letter-spacing="0.1em"><tspan x="0" y="6.133">SECURITY&#10;</tspan><tspan x="0" y="14.133">CODE</tspan></text>
</g>
</g>
<g id="Group 356">
<text id="cirrus." transform="matrix(0 -1 1 0 661 225)" fill="#FBF9FC" xml:space="preserve" style="white-space: pre" font-family="Sora" font-size="13" font-weight="600" letter-spacing="0em"><tspan x="0" y="13.42">cirrus.</tspan></text>
<circle id="Ellipse 7" cx="629" cy="223" r="31" transform="rotate(-90 629 223)" fill="#0167B2"/>
<circle id="Ellipse 8" cx="629" cy="185" r="31" transform="rotate(-90 629 185)" fill="#02A1E2"/>
<path id="Intersect" fill-rule="evenodd" clip-rule="evenodd" d="M653.401 204.128C647.739 196.772 638.846 192.032 628.845 192.032C618.845 192.032 609.952 196.772 604.29 204.128C609.952 211.485 618.845 216.225 628.845 216.225C638.846 216.225 647.739 211.485 653.401 204.128Z" fill="#207CBD"/>
</g>
<g id="Group 357">
<rect id="Rectangle 1014" x="30" y="160.234" width="157.438" height="103.766" rx="51.8828" fill="url(#paint1_linear_523_654)"/>
<circle id="Ellipse 168" cx="131.5" cy="212.734" r="31.5" fill="#D9D9D9"/>
<path id="Subtract" fill-rule="evenodd" clip-rule="evenodd" d="M81.8828 160.234C53.2288 160.234 30 183.463 30 212.117C30 240.771 53.2288 264 81.8828 264L97.19 264C129.446 224.175 132.039 201.462 97 160.234L81.8828 160.234Z" fill="url(#paint2_linear_523_654)"/>
</g>
<g id="Group 358">
<path id="Vector" d="M125 397C125.53 397 126.039 397.211 126.414 397.586C126.789 397.961 127 398.47 127 399V411L131 415H115C114.47 415 113.961 414.789 113.586 414.414C113.211 414.039 113 413.53 113 413V399C113 398.47 113.211 397.961 113.586 397.586C113.961 397.211 114.47 397 115 397H125Z" stroke="#FEFBFF" stroke-linecap="round" stroke-linejoin="round"/>
<text id="Est&#195;&#161; com d&#195;&#186;vidas? Nosso app pode te ajudar." transform="matrix(0 -1 1 0 107 384)" fill="#FEFBFF" xml:space="preserve" style="white-space: pre" font-family="Source Sans Pro" font-size="9" letter-spacing="0em"><tspan x="0" y="10.1995">Est&#xe1; com d&#xfa;vidas?&#10;</tspan><tspan x="0" y="24.1995">Nosso app pode te ajudar.</tspan></text>
</g>
<g id="Group 359">
<g id="Group 343">
<path id="Vector_2" d="M173 406C173 400.477 168.523 396 163 396C157.477 396 153 400.477 153 406C153 411.523 157.477 416 163 416C168.523 416 173 411.523 173 406Z" stroke="#FEFBFF" stroke-linecap="round" stroke-linejoin="round"/>
<path id="Vector_3" d="M160 408.91C159.332 408.675 158.768 408.211 158.409 407.6C158.05 406.989 157.919 406.271 158.039 405.573C158.159 404.875 158.522 404.241 159.064 403.785C159.606 403.329 160.292 403.079 161 403.08C163 403.08 164 406.08 164 406.08" stroke="#FEFBFF" stroke-linecap="round" stroke-linejoin="round"/>
<path id="Vector_4" d="M168 406V405.99" stroke="#FEFBFF" stroke-linecap="round" stroke-linejoin="round"/>
</g>
<text id="Fale com a gente: 0800 591 2117" transform="matrix(0 -1 1 0 149 384)" fill="#FEFBFF" xml:space="preserve" style="white-space: pre" font-family="Source Sans Pro" font-size="9" letter-spacing="0em"><tspan x="0" y="10.1995">Fale com a gente:&#10;</tspan><tspan x="0" y="24.1995">0800 591 2117</tspan></text>
</g>
</g>
<defs>
<filter id="filter0_bi_523_654" x="-70" y="-70" width="862" height="598" filterUnits="userSpaceOnUse" color-interpolation-filters="sRGB">
<feFlood flood-opacity="0" result="BackgroundImageFix"/>
<feGaussianBlur in="BackgroundImageFix" stdDeviation="35"/>
<feComposite in2="SourceAlpha" operator="in" result="effect1_backgroundBlur_523_654"/>
<feBlend mode="normal" in="SourceGraphic" in2="effect1_backgroundBlur_523_654" result="shape"/>
<feColorMatrix in="SourceAlpha" type="matrix" values="0 0 0 0 0 0 0 0 0 0 0 0 0 0 0 0 0 0 127 0" result="hardAlpha"/>
<feOffset dx="3" dy="3"/>
<feGaussianBlur stdDeviation="3"/>
<feComposite in2="hardAlpha" operator="arithmetic" k2="-1" k3="1"/>
<feColorMatrix type="matrix" values="0 0 0 0 1 0 0 0 0 1 0 0 0 0 1 0 0 0 0.25 0"/>
<feBlend mode="normal" in2="shape" result="effect2_innerShadow_523_654"/>
</filter>
<linearGradient id="paint0_linear_523_654" x1="642.099" y1="2.96611" x2="330.356" y2="607.902" gradientUnits="userSpaceOnUse">
<stop stop-color="#FF8400"/>
<stop offset="1" stop-color="#FFAE56"/>
</linearGradient>
<linearGradient id="paint1_linear_523_654" x1="113" y1="264.234" x2="156.5" y2="166.234" gradientUnits="userSpaceOnUse">
<stop stop-color="#F6F3F7"/>
<stop offset="1" stop-color="#D6D6D6"/>
</linearGradient>
<linearGradient id="paint2_linear_523_654" x1="101.5" y1="165.234" x2="53" y2="251.734" gradientUnits="userSpaceOnUse">
<stop stop-color="#F5F5F5"/>
<stop offset="1" stop-color="#D6D6D6"/>
</linearGradient>
</defs>
</svg>
