<svg width="722" height="458" viewBox="0 0 722 458" fill="none" xmlns="http://www.w3.org/2000/svg">
<g id="Card-Front">
<g id="Rectangle 970" filter="url(#filter0_bi_524_107)">
<rect width="722" height="458" rx="25" fill="url(#paint0_linear_524_107)"/>
</g>
<text id="LUCAS Y Y FONTENELLE" transform="matrix(0 -1 1 0 620 418)" fill="#FFFDFA" xml:space="preserve" style="white-space: pre" font-family="Montserrat" font-size="18" font-weight="600" letter-spacing="0.1em"><tspan x="0" y="18.953">LUCAS Y Y FONTENELLE</tspan></text>
<text id="E-WALLET CARD" transform="matrix(0 -1 1 0 653 418)" fill="#FFFDFA" xml:space="preserve" style="white-space: pre" font-family="Montserrat" font-size="18" font-weight="300" letter-spacing="0.1em"><tspan x="0" y="18.953">E-WALLET CARD</tspan></text>
<g id="mastercard-icon">
<circle id="Ellipse 16" cx="643" cy="104" r="29" transform="rotate(-90 643 104)" fill="#E71924"/>
<circle id="Ellipse 17" cx="643" cy="68.6564" r="29" transform="rotate(-90 643 68.6564)" fill="#F99F19"/>
<path id="Intersect" fill-rule="evenodd" clip-rule="evenodd" d="M665.881 86.3282C660.579 79.4393 652.251 75.0001 642.886 75.0001C633.521 75.0001 625.193 79.4393 619.891 86.3282C625.193 93.2172 633.521 97.6564 642.886 97.6564C652.251 97.6564 660.579 93.2172 665.881 86.3282Z" fill="#F26520"/>
</g>
<g id="chip-wifi">
<g id="wifi">
<path d="M104.701 48.294C91.4671 43.0222 83.9961 42.4213 70.5223 48.294C69.0927 48.9172 67.9013 48.2939 67.663 47.5791C67.4247 46.8643 67.663 45.7585 69.0926 45.0772C83.6078 38.1592 91.7472 38.5802 106.265 44.7197C107.695 45.4346 107.875 46.7723 107.337 47.5791C106.708 48.5226 105.819 48.7392 104.701 48.294Z" fill="#FEFBFF"/>
<path d="M71.5947 55.7999C71.9521 56.5147 73.3078 56.9721 74.8115 56.1574C84.8174 51.3482 90.5397 51.5458 100.904 56.1574C101.949 56.6607 103.103 56.3491 103.406 55.4425C103.763 54.3702 103.003 53.434 101.976 52.9405C90.9617 47.6465 84.6339 47.5066 73.0244 52.9405C71.9521 53.4424 71.0586 54.7276 71.5947 55.7999Z" fill="#FEFBFF"/>
<path d="M76.2412 62.9484C76.5987 64.0207 77.7851 64.2108 79.1006 63.6633C85.9401 60.8171 89.7752 60.3682 96.6145 63.6633C97.8061 64.3057 99.0702 64.5172 99.4739 63.3059C99.8776 62.0946 99.2404 61.2215 98.4016 60.8039C90.0265 56.5811 85.3311 57.5273 76.9561 60.8039C76.2412 61.0836 75.8838 61.8761 76.2412 62.9484Z" fill="#FEFBFF"/>
<path d="M79.1006 70.4544C79.8155 71.5266 80.8997 71.6789 82.6749 70.8118C86.4416 69.0028 88.5575 69.044 92.3254 70.8118C93.9872 71.6337 95.8997 71.884 96.2571 70.4544C96.6145 69.0246 96.1068 68.3897 94.1125 67.595C88.8649 65.7695 85.8976 65.5912 80.5303 67.595C79.138 68.0564 78.3858 69.0247 79.1006 70.4544Z" fill="#FEFBFF"/>
</g>
<g id="chip">
<rect id="Rectangle 344" x="60" y="169" width="77" height="55" rx="7.14851" transform="rotate(-90 60 169)" fill="url(#paint1_linear_524_107)"/>
<path id="Vector 9" d="M78.1501 167.9V145.35" stroke="#656565" stroke-width="2" stroke-linecap="square"/>
<path id="Vector 10" d="M95.2001 167.9V145.844" stroke="#656565" stroke-width="2" stroke-linecap="square"/>
<path id="Vector 11" d="M95.2001 115.1V93.1001" stroke="#656565" stroke-width="2" stroke-linecap="square"/>
<path id="Vector 12" d="M77.7001 115.431C77.7001 115.983 78.1478 116.431 78.7001 116.431C79.2524 116.431 79.7001 115.983 79.7001 115.431H77.7001ZM79.7001 93.0999V92.0999H77.7001V93.0999H79.7001ZM79.7001 115.431V93.0999H77.7001V115.431H79.7001Z" fill="#656565"/>
<circle id="Ellipse 12" cx="68.8004" cy="130.5" r="1.65" transform="rotate(-90 68.8004 130.5)" fill="#656565"/>
<path id="Vector 14" d="M72.1 118.4C64.913 120.51 61.375 124.45 61.375 130.775C61.375 138.475 67.2382 140.651 77.875 145.35C84.9163 142.341 88.7091 142.31 95.2 145.35C109.342 140.421 113.698 136.769 113.625 130.5C113.625 122.25 106.633 119.902 95.2 115.375C88.7558 117.756 85.1998 118.01 78.7558 115.796" stroke="#656565" stroke-width="2" stroke-linecap="round"/>
</g>
</g>
<g id="Group 345">
<g id="nickel">
<path d="M91.4062 400.777C90.2337 400.777 89.3173 401.087 88.657 401.707C87.9832 402.327 87.6462 403.149 87.6462 404.173C87.6462 404.874 87.8012 405.581 88.1112 406.296C88.4211 407.01 89.0006 407.704 89.8497 408.378H97.9154V404.982H103.454V418H97.9154V414.927H88.0505V417.96H82.5117V408.418H84.3512C83.6639 407.542 83.1249 406.565 82.734 405.487C82.3298 404.395 82.1276 403.25 82.1276 402.051C82.1276 399.53 82.8351 397.59 84.2502 396.229C85.6517 394.868 87.7069 394.187 90.4157 394.187H97.9154V391.215H103.454V400.777H91.4062Z" fill="#FFFDFA"/>
<path d="M82.5117 388.486V379.087H97.9154V376.176H103.454V388.486H97.9154V385.333H88.0505V388.486H82.5117Z" fill="#FFFDFA"/>
<path d="M89.7486 356.83C89.0208 357.41 88.475 358.056 88.1112 358.771C87.7338 359.485 87.5721 360.327 87.626 361.298C87.5721 362.079 87.6799 362.793 87.9495 363.44C88.219 364.074 88.5963 364.626 89.0815 365.098C89.5666 365.556 90.1461 365.913 90.82 366.169C91.4803 366.425 92.2283 366.553 93.0638 366.553C93.805 366.553 94.5058 366.419 95.1661 366.149C95.8265 365.88 96.3992 365.516 96.8844 365.057C97.3561 364.586 97.7267 364.033 97.9962 363.4C98.2657 362.753 98.4275 362.052 98.4814 361.298C98.4275 360.664 98.2994 360.091 98.0973 359.579C97.8817 359.054 97.6121 358.589 97.2887 358.184C96.9518 357.78 96.5812 357.437 96.1769 357.154C95.7591 356.857 95.3683 356.628 95.0044 356.466L96.5407 350.907C97.3493 351.136 98.1916 351.534 99.0676 352.1C99.9436 352.652 100.745 353.38 101.473 354.283C102.187 355.172 102.78 356.237 103.252 357.477C103.724 358.703 103.96 360.105 103.96 361.682C103.96 363.285 103.67 364.761 103.09 366.109C102.497 367.456 101.696 368.615 100.685 369.586C99.674 370.556 98.4881 371.317 97.127 371.87C95.7658 372.409 94.3036 372.678 92.7404 372.678C91.1906 372.678 89.7553 372.402 88.4346 371.85C87.1004 371.284 85.9415 370.509 84.9577 369.525C83.9604 368.541 83.1855 367.375 82.633 366.028C82.0804 364.667 81.8311 363.191 81.885 361.601C81.8311 360.469 81.9591 359.37 82.2691 358.306C82.5791 357.241 83.044 356.23 83.6639 355.274V351.251H89.7486V356.83Z" fill="#FFFDFA"/>
<path d="M72 349.088L72 339.647H90.1327V336.11L88.0505 334.654H82.5117V323.819H88.0505V327.579L92.5584 331.481L97.3696 327.498V324.021H103.454L103.454 329.702L94.4788 336.494V339.647H97.9154V337.505H103.454V349.088H97.9154V345.853H77.5389V349.088H72Z" fill="#FFFDFA"/>
<path d="M94.2969 314.925L94.9236 314.864C95.53 314.716 96.0623 314.467 96.5205 314.116C96.9787 313.752 97.3628 313.328 97.6728 312.843C97.9827 312.358 98.2186 311.818 98.3803 311.226C98.5285 310.633 98.6027 310.033 98.6027 309.426C98.6027 308.82 98.569 308.247 98.5016 307.708C98.4207 307.156 98.3196 306.623 98.1984 306.111C98.0636 305.599 97.9154 305.1 97.7536 304.615C97.5784 304.13 97.3965 303.638 97.2078 303.14L101.352 300.916C101.824 301.684 102.228 302.392 102.565 303.039C102.888 303.672 103.158 304.312 103.373 304.959C103.589 305.606 103.744 306.293 103.838 307.021C103.946 307.749 104 308.598 104 309.568C104 311.387 103.704 313.004 103.111 314.419C102.504 315.834 101.689 317.027 100.665 317.997C99.6403 318.954 98.4409 319.689 97.0663 320.201C95.6917 320.7 94.2363 320.949 92.6999 320.949C91.1636 320.949 89.7216 320.686 88.374 320.16C87.0263 319.621 85.8539 318.867 84.8566 317.896C83.8459 316.926 83.0507 315.767 82.4713 314.419C81.8918 313.072 81.602 311.576 81.602 309.932C81.602 308.288 81.8783 306.832 82.4308 305.565C82.9699 304.285 83.7246 303.207 84.6949 302.331C85.6517 301.455 86.7837 300.781 88.091 300.31C89.3847 299.838 90.7795 299.582 92.2754 299.541C92.6123 299.501 92.9493 299.481 93.2862 299.481C93.6096 299.467 93.9465 299.474 94.2969 299.501V314.925ZM86.6557 310.093C86.6557 310.848 86.7501 311.495 86.9387 312.034C87.1139 312.56 87.3632 313.004 87.6867 313.368C87.9966 313.732 88.3538 314.022 88.7581 314.238C89.1623 314.453 89.5869 314.622 90.0316 314.743V305.99C89.5734 306.084 89.1421 306.219 88.7378 306.394C88.3335 306.569 87.9764 306.812 87.6665 307.122C87.3565 307.432 87.1139 307.829 86.9387 308.315C86.7501 308.786 86.6557 309.379 86.6557 310.093Z" fill="#FFFDFA"/>
<path d="M72 296.812V287.372H97.9154V284.138H103.454V296.812H97.9154V293.578H77.5389V296.812H72Z" fill="#FFFDFA"/>
</g>
<path id="nickel_2" d="M74.3652 385.394C74.7964 385.569 75.2613 385.656 75.76 385.656C76.2586 385.656 76.7303 385.569 77.175 385.394C77.6063 385.205 77.9836 384.949 78.307 384.625C78.6305 384.302 78.8865 383.925 79.0752 383.493C79.2639 383.049 79.3582 382.57 79.3582 382.058C79.3582 381.573 79.2639 381.115 79.0752 380.684C78.8865 380.252 78.6305 379.875 78.307 379.552C77.9836 379.228 77.6063 378.972 77.175 378.783C76.7303 378.595 76.2586 378.5 75.76 378.5C75.2613 378.5 74.7964 378.595 74.3652 378.783C73.9204 378.972 73.5363 379.228 73.2129 379.552C72.8895 379.875 72.6334 380.252 72.4448 380.684C72.2561 381.115 72.1617 381.573 72.1617 382.058C72.1617 382.57 72.2561 383.049 72.4448 383.493C72.6334 383.925 72.8895 384.302 73.2129 384.625C73.5363 384.949 73.9204 385.205 74.3652 385.394Z" fill="#FDF1DE"/>
</g>
</g>
<defs>
<filter id="filter0_bi_524_107" x="-70" y="-70" width="862" height="598" filterUnits="userSpaceOnUse" color-interpolation-filters="sRGB">
<feFlood flood-opacity="0" result="BackgroundImageFix"/>
<feGaussianBlur in="BackgroundImageFix" stdDeviation="35"/>
<feComposite in2="SourceAlpha" operator="in" result="effect1_backgroundBlur_524_107"/>
<feBlend mode="normal" in="SourceGraphic" in2="effect1_backgroundBlur_524_107" result="shape"/>
<feColorMatrix in="SourceAlpha" type="matrix" values="0 0 0 0 0 0 0 0 0 0 0 0 0 0 0 0 0 0 127 0" result="hardAlpha"/>
<feOffset dx="3" dy="3"/>
<feGaussianBlur stdDeviation="3"/>
<feComposite in2="hardAlpha" operator="arithmetic" k2="-1" k3="1"/>
<feColorMatrix type="matrix" values="0 0 0 0 1 0 0 0 0 1 0 0 0 0 1 0 0 0 0.25 0"/>
<feBlend mode="normal" in2="shape" result="effect2_innerShadow_524_107"/>
</filter>
<linearGradient id="paint0_linear_524_107" x1="642.099" y1="2.96611" x2="330.356" y2="607.902" gradientUnits="userSpaceOnUse">
<stop stop-color="#FF8400"/>
<stop offset="1" stop-color="#FFAE56"/>
</linearGradient>
<linearGradient id="paint1_linear_524_107" x1="98.5" y1="169" x2="98.5" y2="224" gradientUnits="userSpaceOnUse">
<stop stop-color="#C2C2C2"/>
<stop offset="1" stop-color="#D6D6D6"/>
</linearGradient>
</defs>
</svg>
