<svg width="218" height="103" viewBox="0 0 218 103" fill="none" xmlns="http://www.w3.org/2000/svg">
<g filter="url(#filter0_ddd_136_83)">
<rect x="25" y="9" width="168" height="54" rx="16" fill="#FFFDFA"/>
</g>
<path fill-rule="evenodd" clip-rule="evenodd" d="M60.4104 26.2083C60.16 26.4664 60 26.82 60 27.2294V44.3578C60 44.8292 60.212 45.2265 60.53 45.4893L70.1107 35.9086L60.4104 26.2083ZM71.1512 36.9491L62.8501 45.2502L73.2634 39.0613L71.1512 36.9491ZM74.5687 38.2855L72.1917 35.9086L74.7129 33.3874L76.6331 34.5287C77.5927 35.099 77.5927 36.4882 76.6331 37.0586L74.5687 38.2855ZM71.1512 34.8681L62.2831 26L73.4077 32.6117L71.1512 34.8681Z" fill="url(#paint0_linear_136_83)"/>
<path d="M97.08 28.42C97.08 28.9567 96.995 29.445 96.825 29.885C96.655 30.325 96.415 30.7017 96.105 31.015C95.795 31.3283 95.4233 31.5717 94.99 31.745C94.5567 31.915 94.0767 32 93.55 32H90.87V24.835H93.55C94.0767 24.835 94.5567 24.9217 94.99 25.095C95.4233 25.265 95.795 25.5083 96.105 25.825C96.415 26.1383 96.655 26.515 96.825 26.955C96.995 27.395 97.08 27.8833 97.08 28.42ZM96.085 28.42C96.085 27.98 96.025 27.5867 95.905 27.24C95.785 26.8933 95.615 26.6 95.395 26.36C95.175 26.12 94.9083 25.9367 94.595 25.81C94.2817 25.6833 93.9333 25.62 93.55 25.62H91.845V31.215H93.55C93.9333 31.215 94.2817 31.1517 94.595 31.025C94.9083 30.8983 95.175 30.7167 95.395 30.48C95.615 30.24 95.785 29.9467 95.905 29.6C96.025 29.2533 96.085 28.86 96.085 28.42ZM100.309 26.855C100.679 26.855 101.013 26.9167 101.309 27.04C101.609 27.1633 101.863 27.3383 102.069 27.565C102.279 27.7917 102.439 28.0667 102.549 28.39C102.663 28.71 102.719 29.0683 102.719 29.465C102.719 29.865 102.663 30.225 102.549 30.545C102.439 30.865 102.279 31.1383 102.069 31.365C101.863 31.5917 101.609 31.7667 101.309 31.89C101.013 32.01 100.679 32.07 100.309 32.07C99.9393 32.07 99.6043 32.01 99.3043 31.89C99.0076 31.7667 98.7543 31.5917 98.5443 31.365C98.3343 31.1383 98.1726 30.865 98.0593 30.545C97.946 30.225 97.8893 29.865 97.8893 29.465C97.8893 29.0683 97.946 28.71 98.0593 28.39C98.1726 28.0667 98.3343 27.7917 98.5443 27.565C98.7543 27.3383 99.0076 27.1633 99.3043 27.04C99.6043 26.9167 99.9393 26.855 100.309 26.855ZM100.309 31.375C100.809 31.375 101.183 31.2083 101.429 30.875C101.676 30.5383 101.799 30.07 101.799 29.47C101.799 28.8667 101.676 28.3967 101.429 28.06C101.183 27.7233 100.809 27.555 100.309 27.555C100.056 27.555 99.836 27.5983 99.6493 27.685C99.4626 27.7717 99.306 27.8967 99.1793 28.06C99.056 28.2233 98.9626 28.425 98.8993 28.665C98.8393 28.9017 98.8093 29.17 98.8093 29.47C98.8093 29.77 98.8393 30.0383 98.8993 30.275C98.9626 30.5117 99.056 30.7117 99.1793 30.875C99.306 31.035 99.4626 31.1583 99.6493 31.245C99.836 31.3317 100.056 31.375 100.309 31.375ZM103.156 26.935H103.856C103.929 26.935 103.989 26.9533 104.036 26.99C104.083 27.0267 104.114 27.07 104.131 27.12L105.101 30.38C105.128 30.5 105.153 30.6167 105.176 30.73C105.199 30.84 105.219 30.9517 105.236 31.065C105.263 30.9517 105.293 30.84 105.326 30.73C105.359 30.6167 105.394 30.5 105.431 30.38L106.501 27.1C106.518 27.05 106.546 27.0083 106.586 26.975C106.629 26.9417 106.683 26.925 106.746 26.925H107.131C107.198 26.925 107.253 26.9417 107.296 26.975C107.339 27.0083 107.369 27.05 107.386 27.1L108.431 30.38C108.468 30.4967 108.499 30.6117 108.526 30.725C108.556 30.8383 108.584 30.95 108.611 31.06C108.628 30.95 108.649 30.835 108.676 30.715C108.703 30.595 108.731 30.4833 108.761 30.38L109.751 27.12C109.768 27.0667 109.799 27.0233 109.846 26.99C109.893 26.9533 109.948 26.935 110.011 26.935H110.681L109.041 32H108.336C108.249 32 108.189 31.9433 108.156 31.83L107.036 28.395C107.009 28.3183 106.988 28.2417 106.971 28.165C106.954 28.085 106.938 28.0067 106.921 27.93C106.904 28.0067 106.888 28.085 106.871 28.165C106.854 28.245 106.833 28.3233 106.806 28.4L105.671 31.83C105.634 31.9433 105.566 32 105.466 32H104.796L103.156 26.935ZM111.472 32V26.935H112.002C112.129 26.935 112.209 26.9967 112.242 27.12L112.312 27.67C112.532 27.4267 112.777 27.23 113.047 27.08C113.321 26.93 113.636 26.855 113.992 26.855C114.269 26.855 114.512 26.9017 114.722 26.995C114.936 27.085 115.112 27.215 115.252 27.385C115.396 27.5517 115.504 27.7533 115.577 27.99C115.651 28.2267 115.687 28.4883 115.687 28.775V32H114.797V28.775C114.797 28.3917 114.709 28.095 114.532 27.885C114.359 27.6717 114.092 27.565 113.732 27.565C113.469 27.565 113.222 27.6283 112.992 27.755C112.766 27.8817 112.556 28.0533 112.362 28.27V32H111.472ZM118.019 24.635V32H117.129V24.635H118.019ZM121.637 26.855C122.007 26.855 122.341 26.9167 122.637 27.04C122.937 27.1633 123.191 27.3383 123.397 27.565C123.607 27.7917 123.767 28.0667 123.877 28.39C123.991 28.71 124.047 29.0683 124.047 29.465C124.047 29.865 123.991 30.225 123.877 30.545C123.767 30.865 123.607 31.1383 123.397 31.365C123.191 31.5917 122.937 31.7667 122.637 31.89C122.341 32.01 122.007 32.07 121.637 32.07C121.267 32.07 120.932 32.01 120.632 31.89C120.336 31.7667 120.082 31.5917 119.872 31.365C119.662 31.1383 119.501 30.865 119.387 30.545C119.274 30.225 119.217 29.865 119.217 29.465C119.217 29.0683 119.274 28.71 119.387 28.39C119.501 28.0667 119.662 27.7917 119.872 27.565C120.082 27.3383 120.336 27.1633 120.632 27.04C120.932 26.9167 121.267 26.855 121.637 26.855ZM121.637 31.375C122.137 31.375 122.511 31.2083 122.757 30.875C123.004 30.5383 123.127 30.07 123.127 29.47C123.127 28.8667 123.004 28.3967 122.757 28.06C122.511 27.7233 122.137 27.555 121.637 27.555C121.384 27.555 121.164 27.5983 120.977 27.685C120.791 27.7717 120.634 27.8967 120.507 28.06C120.384 28.2233 120.291 28.425 120.227 28.665C120.167 28.9017 120.137 29.17 120.137 29.47C120.137 29.77 120.167 30.0383 120.227 30.275C120.291 30.5117 120.384 30.7117 120.507 30.875C120.634 31.035 120.791 31.1583 120.977 31.245C121.164 31.3317 121.384 31.375 121.637 31.375ZM128.864 32H128.469C128.382 32 128.312 31.9867 128.259 31.96C128.206 31.9333 128.171 31.8767 128.154 31.79L128.054 31.32C127.921 31.44 127.791 31.5483 127.664 31.645C127.537 31.7383 127.404 31.8183 127.264 31.885C127.124 31.9483 126.974 31.9967 126.814 32.03C126.657 32.0633 126.482 32.08 126.289 32.08C126.092 32.08 125.907 32.0533 125.734 32C125.564 31.9433 125.416 31.86 125.289 31.75C125.162 31.64 125.061 31.5017 124.984 31.335C124.911 31.165 124.874 30.965 124.874 30.735C124.874 30.535 124.929 30.3433 125.039 30.16C125.149 29.9733 125.326 29.8083 125.569 29.665C125.816 29.5217 126.137 29.405 126.534 29.315C126.931 29.2217 127.416 29.1683 127.989 29.155V28.76C127.989 28.3667 127.904 28.07 127.734 27.87C127.567 27.6667 127.319 27.565 126.989 27.565C126.772 27.565 126.589 27.5933 126.439 27.65C126.292 27.7033 126.164 27.765 126.054 27.835C125.947 27.9017 125.854 27.9633 125.774 28.02C125.697 28.0733 125.621 28.1 125.544 28.1C125.484 28.1 125.431 28.085 125.384 28.055C125.341 28.0217 125.306 27.9817 125.279 27.935L125.119 27.65C125.399 27.38 125.701 27.1783 126.024 27.045C126.347 26.9117 126.706 26.845 127.099 26.845C127.382 26.845 127.634 26.8917 127.854 26.985C128.074 27.0783 128.259 27.2083 128.409 27.375C128.559 27.5417 128.672 27.7433 128.749 27.98C128.826 28.2167 128.864 28.4767 128.864 28.76V32ZM126.554 31.455C126.711 31.455 126.854 31.44 126.984 31.41C127.114 31.3767 127.236 31.3317 127.349 31.275C127.466 31.215 127.576 31.1433 127.679 31.06C127.786 30.9767 127.889 30.8817 127.989 30.775V29.72C127.579 29.7333 127.231 29.7667 126.944 29.82C126.657 29.87 126.424 29.9367 126.244 30.02C126.064 30.1033 125.932 30.2017 125.849 30.315C125.769 30.4283 125.729 30.555 125.729 30.695C125.729 30.8283 125.751 30.9433 125.794 31.04C125.837 31.1367 125.896 31.2167 125.969 31.28C126.042 31.34 126.129 31.385 126.229 31.415C126.329 31.4417 126.437 31.455 126.554 31.455ZM133.777 32C133.651 32 133.571 31.9383 133.537 31.815L133.457 31.2C133.241 31.4633 132.992 31.675 132.712 31.835C132.436 31.9917 132.117 32.07 131.757 32.07C131.467 32.07 131.204 32.015 130.967 31.905C130.731 31.7917 130.529 31.6267 130.362 31.41C130.196 31.1933 130.067 30.9233 129.977 30.6C129.887 30.2767 129.842 29.905 129.842 29.485C129.842 29.1117 129.892 28.765 129.992 28.445C130.092 28.1217 130.236 27.8417 130.422 27.605C130.612 27.3683 130.842 27.1833 131.112 27.05C131.382 26.9133 131.689 26.845 132.032 26.845C132.342 26.845 132.607 26.8983 132.827 27.005C133.047 27.1083 133.244 27.255 133.417 27.445V24.635H134.307V32H133.777ZM132.052 31.35C132.342 31.35 132.596 31.2833 132.812 31.15C133.032 31.0167 133.234 30.8283 133.417 30.585V28.135C133.254 27.915 133.074 27.7617 132.877 27.675C132.684 27.585 132.469 27.54 132.232 27.54C131.759 27.54 131.396 27.7083 131.142 28.045C130.889 28.3817 130.762 28.8617 130.762 29.485C130.762 29.815 130.791 30.0983 130.847 30.335C130.904 30.5683 130.987 30.7617 131.097 30.915C131.207 31.065 131.342 31.175 131.502 31.245C131.662 31.315 131.846 31.35 132.052 31.35ZM137.092 26.935H137.822C137.892 26.935 137.95 26.9533 137.997 26.99C138.044 27.0267 138.077 27.07 138.097 27.12L139.382 30.38C139.429 30.5 139.465 30.62 139.492 30.74C139.519 30.86 139.544 30.9783 139.567 31.095C139.594 30.9783 139.622 30.86 139.652 30.74C139.682 30.62 139.72 30.5 139.767 30.38L141.067 27.12C141.087 27.0667 141.119 27.0233 141.162 26.99C141.209 26.9533 141.265 26.935 141.332 26.935H142.027L139.962 32H139.157L137.092 26.935ZM143.839 26.935V32H142.949V26.935H143.839ZM144.039 25.345C144.039 25.4317 144.021 25.5133 143.984 25.59C143.951 25.6633 143.904 25.73 143.844 25.79C143.787 25.8467 143.721 25.8917 143.644 25.925C143.567 25.9583 143.486 25.975 143.399 25.975C143.312 25.975 143.231 25.9583 143.154 25.925C143.081 25.8917 143.014 25.8467 142.954 25.79C142.897 25.73 142.852 25.6633 142.819 25.59C142.786 25.5133 142.769 25.4317 142.769 25.345C142.769 25.2583 142.786 25.1767 142.819 25.1C142.852 25.02 142.897 24.9517 142.954 24.895C143.014 24.835 143.081 24.7883 143.154 24.755C143.231 24.7217 143.312 24.705 143.399 24.705C143.486 24.705 143.567 24.7217 143.644 24.755C143.721 24.7883 143.787 24.835 143.844 24.895C143.904 24.9517 143.951 25.02 143.984 25.1C144.021 25.1767 144.039 25.2583 144.039 25.345ZM149.128 32H148.733C148.646 32 148.576 31.9867 148.523 31.96C148.469 31.9333 148.434 31.8767 148.418 31.79L148.318 31.32C148.184 31.44 148.054 31.5483 147.928 31.645C147.801 31.7383 147.668 31.8183 147.528 31.885C147.388 31.9483 147.238 31.9967 147.078 32.03C146.921 32.0633 146.746 32.08 146.553 32.08C146.356 32.08 146.171 32.0533 145.998 32C145.828 31.9433 145.679 31.86 145.553 31.75C145.426 31.64 145.324 31.5017 145.248 31.335C145.174 31.165 145.138 30.965 145.138 30.735C145.138 30.535 145.193 30.3433 145.303 30.16C145.413 29.9733 145.589 29.8083 145.833 29.665C146.079 29.5217 146.401 29.405 146.798 29.315C147.194 29.2217 147.679 29.1683 148.253 29.155V28.76C148.253 28.3667 148.168 28.07 147.998 27.87C147.831 27.6667 147.583 27.565 147.253 27.565C147.036 27.565 146.853 27.5933 146.703 27.65C146.556 27.7033 146.428 27.765 146.318 27.835C146.211 27.9017 146.118 27.9633 146.038 28.02C145.961 28.0733 145.884 28.1 145.808 28.1C145.748 28.1 145.694 28.085 145.648 28.055C145.604 28.0217 145.569 27.9817 145.543 27.935L145.383 27.65C145.663 27.38 145.964 27.1783 146.288 27.045C146.611 26.9117 146.969 26.845 147.363 26.845C147.646 26.845 147.898 26.8917 148.118 26.985C148.338 27.0783 148.523 27.2083 148.673 27.375C148.823 27.5417 148.936 27.7433 149.013 27.98C149.089 28.2167 149.128 28.4767 149.128 28.76V32ZM146.818 31.455C146.974 31.455 147.118 31.44 147.248 31.41C147.378 31.3767 147.499 31.3317 147.613 31.275C147.729 31.215 147.839 31.1433 147.943 31.06C148.049 30.9767 148.153 30.8817 148.253 30.775V29.72C147.843 29.7333 147.494 29.7667 147.208 29.82C146.921 29.87 146.688 29.9367 146.508 30.02C146.328 30.1033 146.196 30.2017 146.113 30.315C146.033 30.4283 145.993 30.555 145.993 30.695C145.993 30.8283 146.014 30.9433 146.058 31.04C146.101 31.1367 146.159 31.2167 146.233 31.28C146.306 31.34 146.393 31.385 146.493 31.415C146.593 31.4417 146.701 31.455 146.818 31.455Z" fill="#171716"/>
<path d="M96.265 44.713C96.6593 44.713 97.0017 44.6783 97.292 44.609C97.5867 44.5353 97.8662 44.4357 98.1305 44.31V42.6005H96.954C96.8413 42.6005 96.7525 42.5702 96.6875 42.5095C96.6225 42.4445 96.59 42.3665 96.59 42.2755V41.2875H99.7165V45.09C99.4782 45.2633 99.229 45.415 98.969 45.545C98.7133 45.6707 98.4382 45.7747 98.1435 45.857C97.8532 45.9393 97.5412 46 97.2075 46.039C96.8738 46.0823 96.5142 46.104 96.1285 46.104C95.4438 46.104 94.8133 45.9848 94.237 45.7465C93.6607 45.5082 93.1623 45.1767 92.742 44.752C92.3217 44.3273 91.9923 43.8203 91.754 43.231C91.52 42.6417 91.403 41.9982 91.403 41.3005C91.403 40.5942 91.5178 39.9463 91.7475 39.357C91.9772 38.7677 92.3022 38.2607 92.7225 37.836C93.1472 37.4113 93.6607 37.082 94.263 36.848C94.8653 36.614 95.5413 36.497 96.291 36.497C97.058 36.497 97.721 36.6118 98.28 36.8415C98.8433 37.0668 99.32 37.3615 99.71 37.7255L99.203 38.5185C99.1033 38.6788 98.9712 38.759 98.8065 38.759C98.7025 38.759 98.5963 38.7243 98.488 38.655C98.3493 38.5727 98.2063 38.4903 98.059 38.408C97.916 38.3257 97.7557 38.2542 97.578 38.1935C97.4047 38.1328 97.2075 38.083 96.9865 38.044C96.7698 38.005 96.5185 37.9855 96.2325 37.9855C95.7688 37.9855 95.3485 38.0635 94.9715 38.2195C94.5988 38.3755 94.2803 38.5987 94.016 38.889C93.7517 39.1793 93.548 39.5282 93.405 39.9355C93.262 40.3428 93.1905 40.7978 93.1905 41.3005C93.1905 41.8422 93.2663 42.3253 93.418 42.75C93.5697 43.1703 93.782 43.5257 94.055 43.816C94.328 44.1063 94.653 44.3295 95.03 44.4855C95.407 44.6372 95.8187 44.713 96.265 44.713ZM104.1 39.227C104.598 39.227 105.049 39.3072 105.452 39.4675C105.859 39.6278 106.206 39.8553 106.492 40.15C106.778 40.4447 106.999 40.8043 107.155 41.229C107.311 41.6537 107.389 42.1282 107.389 42.6525C107.389 43.1812 107.311 43.6578 107.155 44.0825C106.999 44.5072 106.778 44.869 106.492 45.168C106.206 45.467 105.859 45.6967 105.452 45.857C105.049 46.0173 104.598 46.0975 104.1 46.0975C103.601 46.0975 103.148 46.0173 102.741 45.857C102.334 45.6967 101.985 45.467 101.695 45.168C101.409 44.869 101.185 44.5072 101.025 44.0825C100.869 43.6578 100.791 43.1812 100.791 42.6525C100.791 42.1282 100.869 41.6537 101.025 41.229C101.185 40.8043 101.409 40.4447 101.695 40.15C101.985 39.8553 102.334 39.6278 102.741 39.4675C103.148 39.3072 103.601 39.227 104.1 39.227ZM104.1 44.8625C104.654 44.8625 105.064 44.6762 105.328 44.3035C105.597 43.9308 105.731 43.3848 105.731 42.6655C105.731 41.9462 105.597 41.398 105.328 41.021C105.064 40.644 104.654 40.4555 104.1 40.4555C103.536 40.4555 103.12 40.6462 102.852 41.0275C102.583 41.4045 102.449 41.9505 102.449 42.6655C102.449 43.3805 102.583 43.9265 102.852 44.3035C103.12 44.6762 103.536 44.8625 104.1 44.8625ZM111.488 39.227C111.987 39.227 112.437 39.3072 112.84 39.4675C113.248 39.6278 113.594 39.8553 113.88 40.15C114.166 40.4447 114.387 40.8043 114.543 41.229C114.699 41.6537 114.777 42.1282 114.777 42.6525C114.777 43.1812 114.699 43.6578 114.543 44.0825C114.387 44.5072 114.166 44.869 113.88 45.168C113.594 45.467 113.248 45.6967 112.84 45.857C112.437 46.0173 111.987 46.0975 111.488 46.0975C110.99 46.0975 110.537 46.0173 110.13 45.857C109.722 45.6967 109.374 45.467 109.083 45.168C108.797 44.869 108.574 44.5072 108.414 44.0825C108.258 43.6578 108.18 43.1812 108.18 42.6525C108.18 42.1282 108.258 41.6537 108.414 41.229C108.574 40.8043 108.797 40.4447 109.083 40.15C109.374 39.8553 109.722 39.6278 110.13 39.4675C110.537 39.3072 110.99 39.227 111.488 39.227ZM111.488 44.8625C112.043 44.8625 112.452 44.6762 112.717 44.3035C112.985 43.9308 113.12 43.3848 113.12 42.6655C113.12 41.9462 112.985 41.398 112.717 41.021C112.452 40.644 112.043 40.4555 111.488 40.4555C110.925 40.4555 110.509 40.6462 110.24 41.0275C109.972 41.4045 109.837 41.9505 109.837 42.6655C109.837 43.3805 109.972 43.9265 110.24 44.3035C110.509 44.6762 110.925 44.8625 111.488 44.8625ZM118.337 39.214C118.623 39.214 118.892 39.2443 119.143 39.305C119.395 39.3613 119.624 39.4458 119.832 39.5585H121.75V40.1565C121.75 40.2562 121.724 40.3342 121.672 40.3905C121.62 40.4468 121.531 40.4858 121.405 40.5075L120.807 40.618C120.851 40.7307 120.883 40.8498 120.905 40.9755C120.931 41.1012 120.944 41.2333 120.944 41.372C120.944 41.7013 120.877 42.0003 120.742 42.269C120.612 42.5333 120.43 42.7587 120.196 42.945C119.967 43.1313 119.692 43.2765 119.371 43.3805C119.055 43.4802 118.71 43.53 118.337 43.53C118.086 43.53 117.841 43.5062 117.603 43.4585C117.395 43.5842 117.291 43.725 117.291 43.881C117.291 44.0153 117.352 44.115 117.473 44.18C117.599 44.2407 117.761 44.284 117.96 44.31C118.164 44.336 118.394 44.3533 118.649 44.362C118.905 44.3663 119.167 44.3793 119.436 44.401C119.705 44.4227 119.967 44.4617 120.222 44.518C120.478 44.57 120.706 44.6545 120.905 44.7715C121.109 44.8885 121.271 45.0488 121.392 45.2525C121.518 45.4518 121.581 45.7097 121.581 46.026C121.581 46.3207 121.507 46.6067 121.36 46.884C121.217 47.1613 121.007 47.4083 120.729 47.625C120.456 47.8417 120.121 48.015 119.722 48.145C119.323 48.2793 118.868 48.3465 118.357 48.3465C117.85 48.3465 117.41 48.2967 117.037 48.197C116.665 48.1017 116.355 47.9717 116.108 47.807C115.865 47.6467 115.683 47.4603 115.562 47.248C115.441 47.0357 115.38 46.8147 115.38 46.585C115.38 46.273 115.475 46.0108 115.666 45.7985C115.857 45.5862 116.121 45.4172 116.459 45.2915C116.294 45.2005 116.162 45.0792 116.062 44.9275C115.963 44.7758 115.913 44.5787 115.913 44.336C115.913 44.2363 115.93 44.1345 115.965 44.0305C116 43.9222 116.052 43.816 116.121 43.712C116.195 43.608 116.286 43.5105 116.394 43.4195C116.502 43.3242 116.63 43.2397 116.777 43.166C116.439 42.984 116.173 42.7413 115.978 42.438C115.787 42.1347 115.692 41.7793 115.692 41.372C115.692 41.0427 115.757 40.7458 115.887 40.4815C116.021 40.2128 116.205 39.9853 116.439 39.799C116.678 39.6083 116.957 39.4632 117.278 39.3635C117.603 39.2638 117.956 39.214 118.337 39.214ZM120.099 46.299C120.099 46.169 120.06 46.0628 119.982 45.9805C119.904 45.8982 119.798 45.8353 119.663 45.792C119.529 45.7443 119.371 45.7097 119.189 45.688C119.011 45.6663 118.821 45.6512 118.617 45.6425C118.418 45.6295 118.21 45.6187 117.993 45.61C117.781 45.597 117.575 45.5775 117.375 45.5515C117.193 45.6512 117.046 45.7703 116.933 45.909C116.825 46.0433 116.771 46.1993 116.771 46.377C116.771 46.494 116.799 46.6023 116.855 46.702C116.916 46.806 117.009 46.8948 117.135 46.9685C117.265 47.0422 117.432 47.0985 117.635 47.1375C117.839 47.1808 118.088 47.2025 118.383 47.2025C118.682 47.2025 118.94 47.1787 119.156 47.131C119.373 47.0877 119.551 47.0248 119.689 46.9425C119.832 46.8645 119.936 46.7692 120.001 46.6565C120.066 46.5482 120.099 46.429 120.099 46.299ZM118.337 42.503C118.537 42.503 118.71 42.477 118.857 42.425C119.005 42.3687 119.126 42.2928 119.221 42.1975C119.321 42.1022 119.395 41.9873 119.442 41.853C119.494 41.7187 119.52 41.5713 119.52 41.411C119.52 41.0817 119.421 40.8217 119.221 40.631C119.026 40.436 118.732 40.3385 118.337 40.3385C117.943 40.3385 117.646 40.436 117.447 40.631C117.252 40.8217 117.154 41.0817 117.154 41.411C117.154 41.567 117.178 41.7122 117.226 41.8465C117.278 41.9808 117.352 42.0978 117.447 42.1975C117.547 42.2928 117.67 42.3687 117.817 42.425C117.969 42.477 118.142 42.503 118.337 42.503ZM124.468 36.341V46H122.862V36.341H124.468ZM129.044 39.227C129.464 39.227 129.85 39.2942 130.201 39.4285C130.556 39.5628 130.862 39.76 131.117 40.02C131.373 40.2757 131.572 40.592 131.715 40.969C131.858 41.3417 131.93 41.7685 131.93 42.2495C131.93 42.3708 131.923 42.4727 131.91 42.555C131.902 42.633 131.882 42.6958 131.852 42.7435C131.826 42.7868 131.789 42.8193 131.741 42.841C131.694 42.8583 131.633 42.867 131.559 42.867H127.438C127.486 43.5517 127.67 44.0543 127.991 44.375C128.311 44.6957 128.736 44.856 129.265 44.856C129.525 44.856 129.748 44.8257 129.934 44.765C130.125 44.7043 130.29 44.6372 130.428 44.5635C130.571 44.4898 130.695 44.4227 130.799 44.362C130.907 44.3013 131.011 44.271 131.111 44.271C131.176 44.271 131.232 44.284 131.28 44.31C131.327 44.336 131.369 44.3728 131.403 44.4205L131.871 45.0055C131.694 45.2135 131.494 45.389 131.273 45.532C131.052 45.6707 130.82 45.7833 130.578 45.87C130.339 45.9523 130.095 46.0108 129.843 46.0455C129.596 46.0802 129.356 46.0975 129.122 46.0975C128.658 46.0975 128.227 46.0217 127.828 45.87C127.43 45.714 127.083 45.4865 126.788 45.1875C126.494 44.8842 126.262 44.5115 126.093 44.0695C125.924 43.6232 125.839 43.1075 125.839 42.5225C125.839 42.0675 125.913 41.6407 126.06 41.242C126.208 40.839 126.418 40.4902 126.691 40.1955C126.968 39.8965 127.304 39.6603 127.698 39.487C128.097 39.3137 128.545 39.227 129.044 39.227ZM129.076 40.3775C128.608 40.3775 128.242 40.5097 127.978 40.774C127.713 41.0383 127.544 41.4132 127.471 41.8985H130.487C130.487 41.6905 130.459 41.4955 130.402 41.3135C130.346 41.1272 130.259 40.9647 130.142 40.826C130.025 40.6873 129.878 40.579 129.7 40.501C129.523 40.4187 129.315 40.3775 129.076 40.3775ZM137.644 42.6915V46H135.895V36.601H138.957C139.585 36.601 140.129 36.6747 140.588 36.822C141.048 36.9693 141.427 37.1752 141.726 37.4395C142.025 37.7038 142.246 38.0202 142.389 38.3885C142.532 38.7568 142.603 39.1598 142.603 39.5975C142.603 40.0525 142.527 40.4707 142.376 40.852C142.224 41.229 141.997 41.554 141.693 41.827C141.39 42.1 141.011 42.3123 140.556 42.464C140.101 42.6157 139.568 42.6915 138.957 42.6915H137.644ZM137.644 41.3265H138.957C139.277 41.3265 139.557 41.2875 139.795 41.2095C140.034 41.1272 140.231 41.0123 140.387 40.865C140.543 40.7133 140.66 40.5313 140.738 40.319C140.816 40.1023 140.855 39.8618 140.855 39.5975C140.855 39.3462 140.816 39.1187 140.738 38.915C140.66 38.7113 140.543 38.538 140.387 38.395C140.231 38.252 140.034 38.1437 139.795 38.07C139.557 37.992 139.277 37.953 138.957 37.953H137.644V41.3265ZM145.58 36.341V46H143.975V36.341H145.58ZM152.626 46H151.904C151.753 46 151.634 45.9783 151.547 45.935C151.46 45.8873 151.395 45.7942 151.352 45.6555L151.209 45.181C151.04 45.3327 150.873 45.467 150.708 45.584C150.548 45.6967 150.381 45.792 150.208 45.87C150.035 45.948 149.85 46.0065 149.655 46.0455C149.46 46.0845 149.244 46.104 149.005 46.104C148.724 46.104 148.464 46.0672 148.225 45.9935C147.987 45.9155 147.781 45.8007 147.608 45.649C147.439 45.4973 147.307 45.3088 147.211 45.0835C147.116 44.8582 147.068 44.596 147.068 44.297C147.068 44.0457 147.133 43.7987 147.263 43.556C147.398 43.309 147.619 43.088 147.926 42.893C148.234 42.6937 148.644 42.529 149.155 42.399C149.666 42.269 150.301 42.1953 151.059 42.178V41.788C151.059 41.3417 150.964 41.0123 150.773 40.8C150.587 40.5833 150.314 40.475 149.954 40.475C149.694 40.475 149.478 40.5053 149.304 40.566C149.131 40.6267 148.979 40.696 148.849 40.774C148.724 40.8477 148.607 40.9148 148.498 40.9755C148.39 41.0362 148.271 41.0665 148.141 41.0665C148.033 41.0665 147.939 41.0383 147.861 40.982C147.783 40.9257 147.721 40.8563 147.673 40.774L147.38 40.2605C148.147 39.5585 149.073 39.2075 150.156 39.2075C150.546 39.2075 150.893 39.2725 151.196 39.4025C151.504 39.5282 151.764 39.7058 151.976 39.9355C152.188 40.1608 152.349 40.4317 152.457 40.748C152.57 41.0643 152.626 41.411 152.626 41.788V46ZM149.506 44.999C149.671 44.999 149.822 44.9838 149.961 44.9535C150.1 44.9232 150.23 44.8777 150.351 44.817C150.477 44.7563 150.596 44.6827 150.708 44.596C150.825 44.505 150.942 44.3988 151.059 44.2775V43.153C150.591 43.1747 150.199 43.2158 149.883 43.2765C149.571 43.3328 149.32 43.4065 149.129 43.4975C148.938 43.5885 148.802 43.6947 148.719 43.816C148.641 43.9373 148.602 44.0695 148.602 44.2125C148.602 44.4942 148.685 44.6957 148.849 44.817C149.018 44.9383 149.237 44.999 149.506 44.999ZM156.342 47.833C156.294 47.9457 156.232 48.0302 156.154 48.0865C156.08 48.1472 155.965 48.1775 155.809 48.1775H154.613L155.861 45.506L153.164 39.331H154.568C154.698 39.331 154.797 39.3613 154.867 39.422C154.936 39.4827 154.988 39.552 155.023 39.63L156.446 43.088C156.494 43.2007 156.535 43.3177 156.57 43.439C156.604 43.5603 156.635 43.6817 156.661 43.803C156.695 43.6773 156.732 43.556 156.771 43.439C156.814 43.322 156.86 43.2028 156.908 43.0815L158.247 39.63C158.281 39.5433 158.338 39.4718 158.416 39.4155C158.498 39.3592 158.589 39.331 158.689 39.331H159.976L156.342 47.833Z" fill="#171716"/>
<defs>
<filter id="filter0_ddd_136_83" x="0.882341" y="0.257349" width="216.235" height="102.235" filterUnits="userSpaceOnUse" color-interpolation-filters="sRGB">
<feFlood flood-opacity="0" result="BackgroundImageFix"/>
<feColorMatrix in="SourceAlpha" type="matrix" values="0 0 0 0 0 0 0 0 0 0 0 0 0 0 0 0 0 0 127 0" result="hardAlpha"/>
<feOffset dy="2.30969"/>
<feGaussianBlur stdDeviation="1.81152"/>
<feColorMatrix type="matrix" values="0 0 0 0 0.976471 0 0 0 0 0.741176 0 0 0 0 0.360784 0 0 0 0.03 0"/>
<feBlend mode="normal" in2="BackgroundImageFix" result="effect1_dropShadow_136_83"/>
<feColorMatrix in="SourceAlpha" type="matrix" values="0 0 0 0 0 0 0 0 0 0 0 0 0 0 0 0 0 0 127 0" result="hardAlpha"/>
<feOffset dy="6.38599"/>
<feGaussianBlur stdDeviation="5.00862"/>
<feColorMatrix type="matrix" values="0 0 0 0 0.976471 0 0 0 0 0.741176 0 0 0 0 0.360784 0 0 0 0.05 0"/>
<feBlend mode="normal" in2="effect1_dropShadow_136_83" result="effect2_dropShadow_136_83"/>
<feColorMatrix in="SourceAlpha" type="matrix" values="0 0 0 0 0 0 0 0 0 0 0 0 0 0 0 0 0 0 127 0" result="hardAlpha"/>
<feOffset dy="15.375"/>
<feGaussianBlur stdDeviation="12.0588"/>
<feColorMatrix type="matrix" values="0 0 0 0 0.976471 0 0 0 0 0.741176 0 0 0 0 0.360784 0 0 0 0.07 0"/>
<feBlend mode="normal" in2="effect2_dropShadow_136_83" result="effect3_dropShadow_136_83"/>
<feBlend mode="normal" in="SourceGraphic" in2="effect3_dropShadow_136_83" result="shape"/>
</filter>
<linearGradient id="paint0_linear_136_83" x1="75.4325" y1="26.1262" x2="59.2116" y2="43.9044" gradientUnits="userSpaceOnUse">
<stop stop-color="#FF8400"/>
<stop offset="1" stop-color="#FFAE56"/>
</linearGradient>
</defs>
</svg>
