<svg width="72" height="72" viewBox="0 0 72 72" fill="none" xmlns="http://www.w3.org/2000/svg">
<rect width="72" height="72" rx="17.0769" fill="#FFFDFA"/>
<path fill-rule="evenodd" clip-rule="evenodd" d="M30.0133 21.5912C29.9226 20.6878 29.1622 20 28.2543 20H22.7679C21.7915 20 21 20.7915 21 21.7679C21 22.7442 21.7915 23.5357 22.7679 23.5357H26.6551L27.2481 29.4425C27.2479 29.4838 27.2499 29.5253 27.254 29.5668L28.3908 40.8688C28.3928 40.8884 28.3952 40.9081 28.3982 40.9276C28.5202 41.7319 28.9287 42.4651 29.5486 42.9919C30.1666 43.5171 30.9531 43.8021 31.764 43.7948H45.5565C46.2804 43.8252 46.9953 43.6218 47.5949 43.214C48.204 42.7998 48.6608 42.1976 48.8956 41.4995L48.8968 41.4958L51.8156 32.7175L51.8164 32.7147C51.9837 32.2075 52.028 31.6677 51.946 31.1399C51.8642 30.614 51.6591 30.115 51.3475 29.6835C51.0213 29.2258 50.5859 28.8569 50.0808 28.6102C49.5827 28.367 49.0326 28.2503 48.4791 28.2703H30.6839L30.0133 21.5912ZM47.8832 50.0405C47.8832 48.5072 46.6403 47.2643 45.107 47.2643C43.5735 47.2643 42.3305 48.5072 42.3305 50.0405C42.3305 51.5738 43.5735 52.817 45.107 52.817C46.6403 52.817 47.8832 51.5738 47.8832 50.0405ZM32.977 47.2643C34.5104 47.2643 35.7534 48.5072 35.7534 50.0405C35.7534 51.5738 34.5104 52.817 32.977 52.817C31.4437 52.817 30.2007 51.5738 30.2007 50.0405C30.2007 48.5072 31.4437 47.2643 32.977 47.2643Z" fill="#FF8400"/>
</svg>
