<svg width="72" height="72" viewBox="0 0 72 72" fill="none" xmlns="http://www.w3.org/2000/svg">
<g clip-path="url(#clip0_244_3)">
<rect width="72" height="72" rx="17.0769" fill="#FFFDFA"/>
<path fill-rule="evenodd" clip-rule="evenodd" d="M23.5357 24C21.583 24 20 25.583 20 27.5357V29.7513H53V27.5357C53 25.583 51.4169 24 49.4643 24H23.5357ZM20 45.2143V32.6977H53V45.2143C53 47.1669 51.4169 48.75 49.4643 48.75H23.5357C21.583 48.75 20 47.1669 20 45.2143ZM42.3929 40.2054C41.5792 40.2054 40.9196 40.8649 40.9196 41.6786C40.9196 42.4922 41.5792 43.1518 42.3929 43.1518H45.9286C46.7423 43.1518 47.4018 42.4922 47.4018 41.6786C47.4018 40.8649 46.7423 40.2054 45.9286 40.2054H42.3929Z" fill="#FF8400"/>
</g>
<defs>
<clipPath id="clip0_244_3">
<rect width="72" height="72" fill="white"/>
</clipPath>
</defs>
</svg>
