<svg width="48" height="48" viewBox="0 0 48 48" fill="none" xmlns="http://www.w3.org/2000/svg">
<path d="M32 8H16C11.5817 8 8 11.5817 8 16V32C8 36.4183 11.5817 40 16 40H32C36.4183 40 40 36.4183 40 32V16C40 11.5817 36.4183 8 32 8Z" stroke="#868587" stroke-width="2" stroke-linecap="round" stroke-linejoin="round"/>
<path d="M30.4 22.9921C30.5974 24.3237 30.37 25.6837 29.75 26.8785C29.13 28.0734 28.149 29.0424 26.9466 29.6476C25.7441 30.2528 24.3815 30.4635 23.0524 30.2496C21.7234 30.0357 20.4956 29.4082 19.5437 28.4564C18.5918 27.5045 17.9643 26.2767 17.7505 24.9477C17.5366 23.6186 17.7473 22.2559 18.3525 21.0535C18.9577 19.8511 19.9267 18.8701 21.1215 18.2501C22.3164 17.6301 23.6764 17.4027 25.008 17.6001C26.3662 17.8015 27.6237 18.4345 28.5947 19.4054C29.5656 20.3764 30.1986 21.6338 30.4 22.9921Z" stroke="#868587" stroke-width="2" stroke-linecap="round" stroke-linejoin="round"/>
<path d="M32.7999 15.1989H32.8168" stroke="#868587" stroke-width="2" stroke-linecap="round" stroke-linejoin="round"/>
</svg>
