<svg width="72" height="72" viewBox="0 0 72 72" fill="none" xmlns="http://www.w3.org/2000/svg">
<g clip-path="url(#clip0_244_36)">
<rect width="72" height="72" rx="17.0769" fill="#FFFDFA"/>
<path fill-rule="evenodd" clip-rule="evenodd" d="M36.4683 23.5369C35.4823 23.5192 34.5026 23.6963 33.5851 24.0579C32.6677 24.4195 31.8307 24.9587 31.1219 25.6443C30.4132 26.33 29.8468 27.1488 29.455 28.0538C29.065 28.9549 28.8558 29.9239 28.8393 30.9056V31.7857V37.0908V41.2143C28.8393 42.5161 27.7839 43.5714 26.4821 43.5714H23.5357C21.583 43.5714 20 41.9884 20 40.0357V35.3214C20 33.3687 21.583 31.7857 23.5357 31.7857H25.3036V30.8915V30.8648C25.3255 29.4137 25.6337 27.9811 26.2102 26.6493C26.7868 25.3174 27.6204 24.1124 28.6634 23.1033C29.7065 22.0941 30.9384 21.3007 32.2885 20.7685C33.6289 20.2402 35.0596 19.9796 36.5 20.0013C37.9404 19.9796 39.3711 20.2402 40.7115 20.7685C42.0616 21.3007 43.2935 22.0941 44.3366 23.1033C45.3796 24.1124 46.2133 25.3174 46.7896 26.6493C47.3662 27.9811 47.6743 29.4137 47.6962 30.8648L47.6967 30.8915L47.6964 31.7857H49.4643C51.4169 31.7857 53 33.3687 53 35.3214V40.0357C53 41.9884 51.4169 43.5714 49.4643 43.5714H47.6964V44.75C47.6964 46.4691 47.0136 48.1179 45.7978 49.3335C44.7552 50.376 43.3941 51.0268 41.9433 51.1911C41.338 52.2705 40.1828 53 38.8571 53H35.3214C33.3687 53 31.7857 51.4169 31.7857 49.4643C31.7857 47.5116 33.3687 45.9286 35.3214 45.9286H38.8571C40.1346 45.9286 41.2539 46.606 41.8752 47.6215C42.4096 47.4984 42.9037 47.2274 43.2977 46.8335C43.8503 46.281 44.1607 45.5314 44.1607 44.75V30.9056C44.1442 29.9239 43.9351 28.9549 43.545 28.0538C43.1532 27.1488 42.5868 26.33 41.8781 25.6443C41.1693 24.9587 40.3323 24.4195 39.4149 24.0579C38.4974 23.6963 37.5177 23.5192 36.5317 23.5369C36.5106 23.5373 36.4894 23.5373 36.4683 23.5369Z" fill="#FF8400"/>
</g>
<defs>
<clipPath id="clip0_244_36">
<rect width="72" height="72" fill="white"/>
</clipPath>
</defs>
</svg>
