<svg width="72" height="72" viewBox="0 0 72 72" fill="none" xmlns="http://www.w3.org/2000/svg">
<g clip-path="url(#clip0_244_31)">
<rect width="72" height="72" rx="17.0769" fill="#FFFDFA"/>
<path fill-rule="evenodd" clip-rule="evenodd" d="M52.962 32.7689C52.962 39.8209 47.2452 45.5377 40.1931 45.5377C33.1411 45.5377 27.4243 39.8209 27.4243 32.7689C27.4243 25.7168 33.1411 20 40.1931 20C47.2452 20 52.962 25.7168 52.962 32.7689ZM40.193 23.1263C41.2108 23.1263 42.036 23.9514 42.036 24.9693V25.7482C42.9134 25.9569 43.6879 26.4315 44.2676 27.079C44.6406 27.4959 44.9355 27.9868 45.1272 28.5287C45.4663 29.4884 44.9633 30.5413 44.0037 30.8805C43.0439 31.2197 41.9909 30.7167 41.6517 29.7571C41.6234 29.6769 41.579 29.6021 41.521 29.5373C41.3973 29.3991 41.2234 29.3164 41.0277 29.3164H40.2052L40.193 29.3165L40.1807 29.3164H39.0894C38.8728 29.3164 38.6972 29.4921 38.6972 29.7087C38.6972 29.8931 38.8255 30.0526 39.0056 30.0919L41.9567 30.7375C43.953 31.1742 45.3749 32.9427 45.3749 34.985C45.3749 37.0381 43.9511 38.7605 42.036 39.2155V39.9944C42.036 41.0122 41.2108 41.8374 40.193 41.8374C39.1751 41.8374 38.35 41.0122 38.35 39.9944V39.2156C36.9075 38.873 35.7457 37.8119 35.259 36.4348C34.9197 35.4751 35.4228 34.4222 36.3824 34.083C37.3421 33.7437 38.3951 34.2467 38.7343 35.2064C38.8259 35.4657 39.0733 35.647 39.3583 35.647H41.0277C41.392 35.647 41.6889 35.351 41.6889 34.985C41.6889 34.6736 41.4719 34.4046 41.169 34.3384L38.2179 33.6928C36.3456 33.2833 35.0111 31.6253 35.0111 29.7087C35.0111 27.7088 36.4506 26.0452 38.35 25.6973V24.9693C38.35 23.9514 39.1751 23.1263 40.193 23.1263ZM40.1931 48.6094C40.9955 48.6094 41.7839 48.55 42.5542 48.4347C40.2119 51.2258 36.6976 53 32.7689 53C25.7168 53 20 47.2832 20 40.2312C20 36.3258 21.7532 32.8299 24.5156 30.4877C24.4082 31.2326 24.3526 31.9943 24.3526 32.7689C24.3526 41.5175 31.4446 48.6094 40.1931 48.6094Z" fill="url(#paint0_linear_244_31)"/>
</g>
<defs>
<linearGradient id="paint0_linear_244_31" x1="49.3142" y1="20.2137" x2="22.3115" y2="53.4144" gradientUnits="userSpaceOnUse">
<stop stop-color="#FF8400"/>
<stop offset="1" stop-color="#FFAE56"/>
</linearGradient>
<clipPath id="clip0_244_31">
<rect width="72" height="72" fill="white"/>
</clipPath>
</defs>
</svg>
