<svg width="40" height="40" viewBox="0 0 40 40" fill="none" xmlns="http://www.w3.org/2000/svg">
<g clip-path="url(#clip0_244_48)">
<circle cx="20" cy="20" r="20" fill="#FFFDFA"/>
<path fill-rule="evenodd" clip-rule="evenodd" d="M28.4033 13.2757C28.9154 13.6988 28.9876 14.457 28.5643 14.9691L18.8934 26.672L18.8905 26.6754C18.6705 26.9396 18.3945 27.1514 18.0823 27.2954C17.7702 27.4395 17.4299 27.5121 17.0862 27.5082C16.7369 27.5038 16.392 27.4204 16.0795 27.2641C15.7681 27.1085 15.4958 26.8844 15.283 26.6088C15.2823 26.6078 15.2816 26.607 15.2809 26.606L12.2534 22.7136C11.8456 22.1893 11.94 21.4335 12.4644 21.0257C12.9888 20.6178 13.7445 20.7123 14.1524 21.2367L17.1157 25.0467L26.7099 13.4367C27.133 12.9246 27.8913 12.8525 28.4033 13.2757Z" fill="#FF8400"/>
</g>
<defs>
<clipPath id="clip0_244_48">
<rect width="40" height="40" fill="white"/>
</clipPath>
</defs>
</svg>
