<svg width="72" height="72" viewBox="0 0 72 72" fill="none" xmlns="http://www.w3.org/2000/svg">
<g clip-path="url(#clip0_244_14)">
<rect width="72" height="72" rx="17.0769" fill="#FFFDFA"/>
<path fill-rule="evenodd" clip-rule="evenodd" d="M40.0826 29.18C41.0375 31.4845 41.529 33.9546 41.529 36.4491C41.529 38.9437 41.0375 41.4137 40.0826 43.7183C39.1277 46.0228 37.728 48.1165 35.9637 49.8801C35.2731 50.5702 35.2728 51.6897 35.963 52.3801C36.6533 53.0707 37.7726 53.0709 38.4632 52.3808C40.556 50.289 42.2163 47.8053 43.349 45.0717C44.4817 42.3381 45.0647 39.4081 45.0647 36.4491C45.0647 33.4901 44.4817 30.5601 43.349 27.8265C42.2163 25.0929 40.556 22.6092 38.4632 20.5175C37.7726 19.8273 36.6533 19.8275 35.963 20.5181C35.2728 21.2087 35.2731 22.328 35.9637 23.0182C37.728 24.7817 39.1277 26.8755 40.0826 29.18ZM34.8295 36.4492C34.8295 34.7322 34.49 33.0321 33.8306 31.4467C33.1713 29.8614 32.205 28.422 30.9873 27.2114C30.2949 26.523 30.2917 25.4037 30.98 24.7113C31.6684 24.0189 32.7878 24.0157 33.4802 24.704C35.0283 26.2432 36.2569 28.0733 37.0952 30.0889C37.9336 32.1046 38.3652 34.2661 38.3652 36.4492C38.3652 38.6323 37.9336 40.7938 37.0952 42.8095C36.2569 44.8252 35.0283 46.6553 33.4802 48.1942C32.7878 48.8828 31.6684 48.8795 30.98 48.1872C30.2917 47.4946 30.2949 46.3752 30.9873 45.6869C32.205 44.4763 33.1713 43.037 33.8306 41.4517C34.49 39.8663 34.8295 38.1662 34.8295 36.4492ZM27.9015 34.1398C28.2189 34.8921 28.3824 35.7004 28.3824 36.5169C28.3824 37.3334 28.2189 38.1417 27.9015 38.894C27.5841 39.6463 27.1192 40.3274 26.5343 40.8972C25.8349 41.5785 25.8202 42.6977 26.5014 43.3971C27.1827 44.0966 28.3019 44.1112 29.0013 43.4299C29.9245 42.5308 30.6581 41.4558 31.1591 40.2685C31.66 39.0812 31.9181 37.8056 31.9181 36.5169C31.9181 35.2283 31.66 33.9526 31.1591 32.7653C30.6581 31.578 29.9245 30.5031 29.0013 29.6039C28.3019 28.9226 27.1827 28.9374 26.5014 29.6367C25.8202 30.3361 25.8349 31.4554 26.5343 32.1367C27.1192 32.7064 27.5841 33.3875 27.9015 34.1398Z" fill="#FF8400"/>
</g>
<defs>
<clipPath id="clip0_244_14">
<rect width="72" height="72" fill="white"/>
</clipPath>
</defs>
</svg>
