<svg width="72" height="72" viewBox="0 0 72 72" fill="none" xmlns="http://www.w3.org/2000/svg">
<g clip-path="url(#clip0_244_42)">
<rect width="72" height="72" rx="17.0769" fill="#FFFDFA"/>
<path fill-rule="evenodd" clip-rule="evenodd" d="M37.8572 20C36.5554 20 35.5 21.0553 35.5 22.3571C35.5 23.6589 36.5554 24.7143 37.8572 24.7143H41.3929C42.0438 24.7143 42.5715 25.242 42.5715 25.8929V40.0357H39.0357C38.5591 40.0357 38.1293 40.3229 37.9469 40.7633C37.7645 41.2037 37.8653 41.7106 38.2024 42.0477L44.0951 47.9406C44.5555 48.4007 45.3017 48.4007 45.7621 47.9406L51.6549 42.0477C51.992 41.7106 52.0927 41.2037 51.9102 40.7633C51.7278 40.3229 51.2981 40.0357 50.8215 40.0357H47.2857V25.8929C47.2857 22.6383 44.6474 20 41.3929 20H37.8572ZM26.9048 25.0595C26.4446 24.5992 25.6984 24.5992 25.2381 25.0595L19.3452 30.9523C19.0082 31.2894 18.9073 31.7963 19.0897 32.2367C19.2722 32.6771 19.7019 32.9643 20.1786 32.9643H23.7143V47.1071C23.7143 50.3617 26.3526 53 29.6072 53H33.1429C34.4447 53 35.5 51.9447 35.5 50.6429C35.5 49.341 34.4447 48.2857 33.1429 48.2857H29.6072C28.9563 48.2857 28.4286 47.758 28.4286 47.1071V32.9643H31.9643C32.441 32.9643 32.8708 32.6771 33.0532 32.2367C33.2356 31.7963 33.1348 31.2894 32.7977 30.9523L26.9048 25.0595Z" fill="#FF8400"/>
</g>
<defs>
<clipPath id="clip0_244_42">
<rect width="72" height="72" fill="white"/>
</clipPath>
</defs>
</svg>
