<svg width="72" height="72" viewBox="0 0 72 72" fill="none" xmlns="http://www.w3.org/2000/svg">
<g clip-path="url(#clip0_244_8)">
<rect width="72" height="72" rx="17.0769" fill="#FFFDFA"/>
<path fill-rule="evenodd" clip-rule="evenodd" d="M27.5357 24.125C27.5357 23.7995 27.7995 23.5357 28.125 23.5357H43.4464C43.772 23.5357 44.0357 23.7995 44.0357 24.125V48.875C44.0357 49.2005 43.772 49.4643 43.4464 49.4643H28.2473C28.2355 49.4593 28.2219 49.4534 28.2066 49.4464C28.0979 49.3952 27.9585 49.3094 27.8263 49.1965C27.6929 49.0829 27.6063 48.9757 27.5611 48.8986C27.5472 48.8748 27.5396 48.8583 27.5357 48.8486V24.125ZM28.125 20C25.8468 20 24 21.8468 24 24.125V48.875C24 50.2702 24.8515 51.3066 25.5321 51.887C25.9002 52.2007 26.3055 52.46 26.7056 52.6476C27.0694 52.8183 27.5776 53 28.125 53H43.4464C45.7246 53 47.5714 51.1532 47.5714 48.875V24.125C47.5714 21.8468 45.7246 20 43.4464 20H28.125ZM34.6071 42.9821C33.6308 42.9821 32.8393 43.7737 32.8393 44.75C32.8393 45.7263 33.6308 46.5179 34.6071 46.5179H36.9643C37.9406 46.5179 38.7321 45.7263 38.7321 44.75C38.7321 43.7737 37.9406 42.9821 36.9643 42.9821H34.6071Z" fill="#FF8400"/>
</g>
<defs>
<clipPath id="clip0_244_8">
<rect width="72" height="72" fill="white"/>
</clipPath>
</defs>
</svg>
