<svg width="72" height="72" viewBox="0 0 72 72" fill="none" xmlns="http://www.w3.org/2000/svg">
<g clip-path="url(#clip0_244_21)">
<rect width="72" height="72" rx="17.0769" fill="#FFFDFA"/>
<path fill-rule="evenodd" clip-rule="evenodd" d="M36.5 53C45.6127 53 53 45.6127 53 36.5C53 27.3873 45.6127 20 36.5 20C27.3873 20 20 27.3873 20 36.5C20 45.6127 27.3873 53 36.5 53ZM37.9732 30.6071C37.9732 29.7935 37.3136 29.1339 36.5 29.1339C35.6864 29.1339 35.0268 29.7935 35.0268 30.6071V36.5C35.0268 36.8446 35.1476 37.1784 35.3682 37.4431L41.2611 44.5145C41.782 45.1396 42.7109 45.224 43.336 44.7031C43.9611 44.1824 44.0455 43.2534 43.5246 42.6283L37.9732 35.9666V30.6071Z" fill="#FF8400"/>
</g>
<defs>
<clipPath id="clip0_244_21">
<rect width="72" height="72" fill="white"/>
</clipPath>
</defs>
</svg>
