<svg width="72" height="72" viewBox="0 0 72 72" fill="none" xmlns="http://www.w3.org/2000/svg">
<g clip-path="url(#clip0_363_49)">
<rect width="72" height="72" rx="17.0769" fill="#FFFDFA"/>
<path fill-rule="evenodd" clip-rule="evenodd" d="M52 37C52 45.8366 44.8366 53 36 53C27.1635 53 20 45.8366 20 37C20 28.1635 27.1635 21 36 21C44.8366 21 52 28.1635 52 37ZM43.2862 29.7138C42.7283 29.1559 41.8238 29.1559 41.2659 29.7138L28.7138 42.2659C28.1559 42.8238 28.1559 43.7283 28.7138 44.2862C29.2717 44.8441 30.1762 44.8441 30.7341 44.2862L43.2862 31.7341C43.8441 31.1762 43.8441 30.2717 43.2862 29.7138ZM30.9791 29.2954C29.4969 29.2954 28.2953 30.4969 28.2953 31.9792C28.2953 33.4614 29.4969 34.6629 30.9791 34.6629C32.4613 34.6629 33.6629 33.4614 33.6629 31.9792C33.6629 30.4969 32.4613 29.2954 30.9791 29.2954ZM41.0208 39.3371C39.5386 39.3371 38.3371 40.5386 38.3371 42.0208C38.3371 43.503 39.5386 44.7047 41.0208 44.7047C42.503 44.7047 43.7047 43.503 43.7047 42.0208C43.7047 40.5386 42.503 39.3371 41.0208 39.3371Z" fill="#FF8400"/>
</g>
<defs>
<clipPath id="clip0_363_49">
<rect width="72" height="72" fill="white"/>
</clipPath>
</defs>
</svg>
