<svg width="72" height="72" viewBox="0 0 72 72" fill="none" xmlns="http://www.w3.org/2000/svg">
<g clip-path="url(#clip0_244_26)">
<rect width="72" height="72" rx="17.0769" fill="#FFFDFA"/>
<path fill-rule="evenodd" clip-rule="evenodd" d="M32.7479 21.6246L31.6563 24.4423L27.8994 26.5746L24.904 26.1177C24.4052 26.05 23.8976 26.1321 23.4456 26.3536C22.9936 26.5751 22.6177 26.9259 22.3655 27.3615L21.3501 29.1385C21.09 29.581 20.9701 30.0921 21.0063 30.6042C21.0426 31.1163 21.2333 31.6054 21.5532 32.0069L23.4571 34.3677V38.6323L21.604 40.9931C21.284 41.3946 21.0934 41.8837 21.0571 42.3958C21.0209 42.9079 21.1407 43.419 21.4009 43.8616L22.4163 45.6384C22.6684 46.074 23.0444 46.425 23.4964 46.6463C23.9484 46.8679 24.456 46.9499 24.9548 46.8823L27.9501 46.4255L31.6563 48.5577L32.7479 51.3755C32.9319 51.8525 33.2558 52.2629 33.677 52.5526C34.0983 52.8425 34.5973 52.9986 35.1086 53H37.2409C37.7523 52.9986 38.2512 52.8425 38.6725 52.5526C39.0937 52.2629 39.4176 51.8525 39.6017 51.3755L40.6932 48.5577L44.3994 46.4255L47.3949 46.8823C47.8936 46.9499 48.4011 46.8679 48.8532 46.6463C49.3051 46.425 49.681 46.074 49.9333 45.6384L50.9487 43.8616C51.2087 43.419 51.3287 42.9079 51.2924 42.3958C51.2561 41.8837 51.0654 41.3946 50.7455 40.9931L48.8417 38.6323V34.3677L50.6949 32.0069C51.0147 31.6054 51.2054 31.1163 51.2417 30.6042C51.278 30.0921 51.158 29.581 50.8978 29.1385L49.8823 27.3615C49.6304 26.9259 49.2544 26.5751 48.8023 26.3536C48.3504 26.1321 47.8427 26.05 47.3439 26.1177L44.3487 26.5746L40.6425 24.4423L39.5509 21.6246C39.3668 21.1475 39.043 20.7372 38.6217 20.4473C38.2005 20.1574 37.7015 20.0015 37.1901 20H35.1086C34.5973 20.0015 34.0983 20.1574 33.677 20.4473C33.2558 20.7372 32.9319 21.1475 32.7479 21.6246ZM36.1494 41.8036C39.0785 41.8036 41.453 39.4291 41.453 36.5C41.453 33.5709 39.0785 31.1964 36.1494 31.1964C33.2203 31.1964 30.8458 33.5709 30.8458 36.5C30.8458 39.4291 33.2203 41.8036 36.1494 41.8036Z" fill="#FF8400"/>
</g>
<defs>
<clipPath id="clip0_244_26">
<rect width="72" height="72" fill="white"/>
</clipPath>
</defs>
</svg>
