<svg viewBox="0 0 724 764" fill="none" xmlns="http://www.w3.org/2000/svg">
<g id="nickel-card-section">
<g id="shadow" filter="url(#filter0_bf_523_149)">
<ellipse cx="345.851" cy="690.511" rx="240.925" ry="28.9573" fill="url(#paint0_radial_523_149)"/>
</g>
<g id="nickel-card-section-2" class="nickel-card-section-2">
<g id="Rectangle 970" filter="url(#filter1_bi_523_149)">
<rect width="467.337" height="296.455" rx="16.182" transform="matrix(-0.260121 0.936117 -0.996268 -0.207121 684 189.986)" fill="url(#paint1_linear_523_149)"/>
</g>
<text id="5032 9334 3764 9846" transform="matrix(0.996268 0.207121 -0.260121 0.936117 318.811 478.116)" fill="#FFFDFA" xml:space="preserve" style="white-space: pre" font-family="Montserrat" font-size="13.5929" font-weight="600" letter-spacing="0.1em"><tspan x="0" y="14.3731">5032 9334 3764 9846</tspan></text>
<g id="Group 346">
<g id="Group 345">
<g id="nickel">
<path d="M412.014 184.977C412.211 184.267 412.166 183.67 411.877 183.187C411.591 182.695 411.117 182.381 410.457 182.243C410.005 182.149 409.523 182.149 409.01 182.241C408.497 182.333 407.952 182.591 407.374 183.015L406.016 187.902L408.206 188.357L407.274 191.714L398.879 189.968L399.811 186.612L401.793 187.024L403.454 181.047L401.498 180.64L402.431 177.284L408.584 178.563L408.274 179.678C408.955 179.379 409.676 179.183 410.437 179.091C411.209 178.992 411.981 179.023 412.755 179.184C414.38 179.522 415.512 180.211 416.152 181.251C416.794 182.282 416.886 183.619 416.43 185.26L415.168 189.805L417.084 190.203L416.151 193.559L409.985 192.277L412.014 184.977Z" fill="#FFFDFA"/>
<path d="M421.437 181.235L427.499 182.495L424.905 191.829L426.783 192.219L425.85 195.575L417.911 193.925L418.844 190.569L420.877 190.992L422.538 185.014L420.505 184.591L421.437 181.235Z" fill="#FFFDFA"/>
<path d="M440.633 189.864C440.382 189.346 440.056 188.928 439.657 188.612C439.26 188.288 438.744 188.077 438.109 187.979C437.614 187.842 437.136 187.811 436.673 187.888C436.219 187.966 435.799 188.121 435.414 188.352C435.036 188.584 434.709 188.888 434.43 189.261C434.154 189.627 433.945 190.063 433.804 190.57C433.68 191.019 433.649 191.461 433.711 191.898C433.774 192.334 433.912 192.73 434.126 193.085C434.351 193.434 434.644 193.733 435.008 193.981C435.379 194.231 435.804 194.423 436.282 194.557C436.699 194.609 437.09 194.608 437.454 194.555C437.83 194.494 438.175 194.393 438.49 194.252C438.807 194.102 439.091 193.923 439.342 193.716C439.603 193.503 439.817 193.297 439.983 193.098L443.309 194.774C443.025 195.233 442.627 195.69 442.114 196.145C441.61 196.602 441.006 196.99 440.301 197.31C439.607 197.624 438.821 197.84 437.942 197.96C437.072 198.081 436.128 198.036 435.112 197.825C434.077 197.61 433.175 197.236 432.403 196.705C431.634 196.165 431.021 195.523 430.566 194.781C430.11 194.038 429.819 193.218 429.692 192.319C429.573 191.422 429.646 190.5 429.909 189.552C430.17 188.613 430.59 187.781 431.168 187.055C431.758 186.322 432.453 185.724 433.253 185.259C434.055 184.787 434.938 184.474 435.9 184.32C436.87 184.167 437.864 184.214 438.88 184.46C439.62 184.579 440.306 184.804 440.941 185.134C441.575 185.465 442.148 185.882 442.661 186.386L445.255 186.925L444.231 190.612L440.633 189.864Z" fill="#FFFDFA"/>
<path d="M448.614 180.148L454.702 181.414L451.649 192.401L453.93 192.875L455.219 191.808L456.152 188.452L463.139 189.905L462.206 193.261L459.782 192.757L456.507 194.965L458.265 198.415L460.507 198.881L459.482 202.568L455.819 201.806L452.95 195.457L450.917 195.034L450.338 197.116L451.72 197.404L450.788 200.76L443.318 199.207L444.251 195.851L446.336 196.284L449.767 183.938L447.681 183.504L448.614 180.148Z" fill="#FFFDFA"/>
<path d="M466.89 198.238L466.824 198.626C466.817 199.014 466.889 199.37 467.037 199.694C467.195 200.021 467.404 200.31 467.665 200.563C467.925 200.816 468.233 201.031 468.588 201.209C468.946 201.378 469.32 201.503 469.711 201.585C470.102 201.666 470.477 201.722 470.836 201.754C471.206 201.779 471.566 201.789 471.917 201.784C472.27 201.771 472.617 201.748 472.957 201.715C473.299 201.674 473.647 201.63 474 201.582L474.736 204.391C474.162 204.574 473.637 204.724 473.163 204.842C472.7 204.953 472.242 205.03 471.789 205.074C471.335 205.118 470.866 205.12 470.381 205.079C469.893 205.047 469.337 204.966 468.711 204.836C467.538 204.592 466.545 204.196 465.732 203.647C464.922 203.089 464.29 202.435 463.837 201.685C463.392 200.936 463.121 200.111 463.022 199.209C462.932 198.309 463.016 197.394 463.275 196.463C463.533 195.532 463.945 194.694 464.511 193.948C465.086 193.203 465.77 192.594 466.564 192.12C467.359 191.637 468.241 191.311 469.207 191.141C470.174 190.97 471.187 190.995 472.248 191.216C473.308 191.436 474.2 191.798 474.924 192.303C475.659 192.801 476.227 193.403 476.628 194.109C477.032 194.806 477.276 195.582 477.36 196.437C477.446 197.285 477.377 198.164 477.151 199.076C477.12 199.285 477.077 199.492 477.02 199.696C476.974 199.894 476.913 200.097 476.837 200.306L466.89 198.238ZM471.292 194.256C470.806 194.155 470.373 194.125 469.993 194.167C469.625 194.203 469.296 194.295 469.007 194.442C468.72 194.581 468.473 194.758 468.266 194.974C468.059 195.19 467.879 195.425 467.726 195.678L473.37 196.852C473.387 196.561 473.372 196.282 473.327 196.014C473.283 195.745 473.186 195.496 473.039 195.267C472.891 195.038 472.675 194.837 472.392 194.666C472.12 194.488 471.753 194.352 471.292 194.256Z" fill="#FFFDFA"/>
<path d="M482.325 187.156L488.412 188.422L484.049 204.125L486.135 204.558L485.202 207.915L477.029 206.215L477.961 202.859L480.047 203.293L483.478 190.946L481.392 190.512L482.325 187.156Z" fill="#FFFDFA"/>
</g>
<path id="nickel_2" d="M424.803 176.714C424.618 176.951 424.483 177.221 424.399 177.524C424.315 177.826 424.292 178.123 424.33 178.416C424.379 178.703 424.481 178.966 424.635 179.205C424.789 179.444 424.989 179.65 425.236 179.822C425.491 179.996 425.783 180.118 426.114 180.186C426.426 180.251 426.738 180.256 427.048 180.199C427.358 180.143 427.644 180.038 427.907 179.885C428.17 179.733 428.399 179.538 428.593 179.302C428.79 179.058 428.93 178.785 429.014 178.483C429.098 178.181 429.115 177.886 429.066 177.6C429.019 177.305 428.919 177.038 428.765 176.799C428.611 176.559 428.41 176.354 428.164 176.181C427.918 176.009 427.638 175.891 427.325 175.826C426.995 175.757 426.671 175.75 426.352 175.805C426.042 175.861 425.756 175.966 425.493 176.118C425.23 176.271 425 176.469 424.803 176.714Z" fill="#FFFDFA"/>
</g>
</g>
<path id="Rectangle 1015" d="M662.941 185.608L541.377 623.091L472.154 608.7L593.719 171.217L662.941 185.608Z" fill="#D6D6D6"/>
<g id="Group 350">
<g id="Group 349">
<text id="02/20" transform="matrix(0.996268 0.207121 -0.260121 0.936117 327.937 543.466)" fill="#FEFBFF" xml:space="preserve" style="white-space: pre" font-family="Rubik" font-size="11.6511" letter-spacing="0em"><tspan x="0" y="11.9905">02/20</tspan></text>
<text id="member since" transform="matrix(0.996268 0.207121 -0.260121 0.936117 301.637 539.921)" fill="#FEFBFF" xml:space="preserve" style="white-space: pre" font-family="Source Sans Pro" font-size="3.88369" letter-spacing="0.1em"><tspan x="0" y="3.88065">MEMBER&#10;</tspan><tspan x="0" y="8.88065">SINCE</tspan></text>
</g>
<g id="Group 348">
<text id="02/27" transform="matrix(0.996268 0.207121 -0.260121 0.936117 331.759 505.164)" fill="#FEFBFF" xml:space="preserve" style="white-space: pre" font-family="Rubik" font-size="11.6511" letter-spacing="0em"><tspan x="0" y="11.9905">02/27</tspan></text>
<text id="valid thru" transform="matrix(0.996268 0.207121 -0.260121 0.936117 311.908 502.96)" fill="#FEFBFF" xml:space="preserve" style="white-space: pre" font-family="Source Sans Pro" font-size="3.88369" letter-spacing="0.1em"><tspan x="0" y="3.88065">VALID&#10;</tspan><tspan x="0" y="8.88065">THRU</tspan></text>
</g>
<g id="Group 347">
<text id="123" transform="matrix(0.996268 0.207121 -0.260121 0.936117 335.09 525.084)" fill="#FEFBFF" xml:space="preserve" style="white-space: pre" font-family="Rubik" font-size="11.6511" letter-spacing="0em"><tspan x="0" y="11.9905">123</tspan></text>
<text id="security code" transform="matrix(0.996268 0.207121 -0.260121 0.936117 306.855 521.138)" fill="#FEFBFF" xml:space="preserve" style="white-space: pre" font-family="Source Sans Pro" font-size="3.88369" letter-spacing="0.1em"><tspan x="0" y="3.88065">SECURITY&#10;</tspan><tspan x="0" y="8.88065">CODE</tspan></text>
</g>
</g>
<g id="Group 342">
<text id="cirrus." transform="matrix(0.996268 0.207121 -0.260121 0.936117 425.928 566.401)" fill="#FBF9FC" xml:space="preserve" style="white-space: pre" font-family="Sora" font-size="8.41466" font-weight="600" letter-spacing="0em"><tspan x="0" y="8.86098">cirrus.</tspan></text>
<circle id="Ellipse 7" cx="20.0657" cy="20.0657" r="20.0657" transform="matrix(0.996268 0.207121 -0.260121 0.936117 417.834 524.34)" fill="#0167B2"/>
<circle id="Ellipse 8" cx="20.0657" cy="20.0657" r="20.0657" transform="matrix(0.996268 0.207121 -0.260121 0.936117 442.339 529.435)" fill="#02A1E2"/>
<path id="Intersect" fill-rule="evenodd" clip-rule="evenodd" d="M440.666 564.595C446.363 562.15 450.917 557.397 452.601 551.338C454.284 545.278 452.725 539.254 448.935 534.837C443.238 537.282 438.684 542.035 437 548.094C435.316 554.154 436.876 560.178 440.666 564.595Z" fill="#207CBD"/>
</g>
<g id="Group 351">
<rect id="Rectangle 1014" width="101.906" height="67.1656" rx="33.5828" transform="matrix(-0.260121 0.936117 -0.996268 -0.207121 575.619 186.683)" fill="url(#paint2_linear_523_149)"/>
<circle id="Ellipse 168" cx="20.3894" cy="20.3894" r="20.3894" transform="matrix(-0.260121 0.936117 -0.996268 -0.207121 550.291 226.282)" fill="#D9D9D9"/>
<path id="Subtract" fill-rule="evenodd" clip-rule="evenodd" d="M566.884 218.12C571.708 200.758 560.64 183.568 542.162 179.727C523.684 175.885 504.793 186.846 499.969 204.209L497.391 213.484C517.642 238.368 531.853 242.984 564.338 227.28L557.828 250.71C557.834 250.687 557.84 250.664 557.847 250.642L566.884 218.12Z" fill="url(#paint3_linear_523_149)"/>
</g>
<g id="Group 353">
<path id="Vector" d="M406.942 212.504C406.853 212.826 406.631 213.106 406.326 213.283C406.021 213.46 405.658 213.519 405.316 213.448L397.577 211.839L394.324 213.727L397.018 204.032C397.108 203.71 397.329 203.43 397.634 203.253C397.939 203.076 398.303 203.017 398.645 203.088L407.673 204.965C408.015 205.036 408.307 205.232 408.486 205.509C408.665 205.787 408.715 206.123 408.626 206.445L406.942 212.504Z" stroke="#FEFBFF" stroke-width="0.647282" stroke-linecap="round" stroke-linejoin="round"/>
<text id="Est&#195;&#161; com d&#195;&#186;vidas? Nosso app pode te ajudar." transform="matrix(0.996268 0.207121 -0.260121 0.936117 418.355 203.34)" fill="#FEFBFF" xml:space="preserve" style="white-space: pre" font-family="Source Sans Pro" font-size="5.82554" letter-spacing="0em"><tspan x="0" y="6.57098">Est&#xe1; com d&#xfa;vidas?&#10;</tspan><tspan x="0" y="15.571">Nosso app pode te ajudar.</tspan></text>
</g>
<g id="Group 352">
<g id="Group 343">
<path id="Vector_2" d="M393.056 240.382C396.617 241.123 400.258 239.01 401.188 235.663C402.118 232.317 399.985 229.004 396.423 228.264C392.862 227.523 389.221 229.636 388.291 232.982C387.361 236.329 389.494 239.642 393.056 240.382Z" stroke="#FEFBFF" stroke-width="0.647282" stroke-linecap="round" stroke-linejoin="round"/>
<path id="Vector_3" d="M393.368 232.115C393.632 231.742 394.026 231.462 394.481 231.327C394.935 231.191 395.42 231.208 395.85 231.374C396.28 231.54 396.628 231.845 396.831 232.235C397.034 232.624 397.079 233.073 396.959 233.502C396.623 234.714 394.52 234.918 394.52 234.918" stroke="#FEFBFF" stroke-width="0.647282" stroke-linecap="round" stroke-linejoin="round"/>
<path id="Vector_4" d="M393.898 237.353L393.905 237.354" stroke="#FEFBFF" stroke-width="0.647282" stroke-linecap="round" stroke-linejoin="round"/>
</g>
<text id="Fale com a gente: 0800 591 2117" transform="matrix(0.996268 0.207121 -0.260121 0.936117 411.283 228.789)" fill="#FEFBFF" xml:space="preserve" style="white-space: pre" font-family="Source Sans Pro" font-size="5.82554" letter-spacing="0em"><tspan x="0" y="6.57098">Fale com a gente:&#10;</tspan><tspan x="0" y="15.571">0800 591 2117</tspan></text>
</g>
</g>
<g id="nickel-card-section-1" class="nickel-card-section-1" filter="url(#filter2_ddd_523_149)">
<g id="Rectangle 970_2" filter="url(#filter3_bi_523_149)">
<rect width="469.386" height="297.754" rx="16.253" transform="matrix(0.237516 0.971384 -0.978148 0.207912 331.31 44.1851)" fill="url(#paint4_linear_523_149)"/>
</g>
<text id="LUCAS Y Y FONTENELLE" transform="matrix(0.978148 -0.207912 0.237516 0.971384 162.779 498.539)" fill="#FFFDFA" xml:space="preserve" style="white-space: pre" font-family="Montserrat" font-size="11.7021" font-weight="600" letter-spacing="0.1em"><tspan x="0" y="12.1952">LUCAS Y Y FONTENELLE</tspan></text>
<text id="E-WALLET CARD" transform="matrix(0.978148 -0.207912 0.237516 0.971384 167.875 519.379)" fill="#FFFDFA" xml:space="preserve" style="white-space: pre" font-family="Montserrat" font-size="11.7021" font-weight="300" letter-spacing="0.1em"><tspan x="0" y="12.1952">E-WALLET CARD</tspan></text>
<g id="mastercard-icon">
<circle id="Ellipse 16" cx="18.8534" cy="18.8534" r="18.8534" transform="matrix(0.978148 -0.207912 0.237516 0.971384 343.088 456.227)" fill="#E71924"/>
<circle id="Ellipse 17" cx="18.8534" cy="18.8534" r="18.8534" transform="matrix(0.978148 -0.207912 0.237516 0.971384 365.563 451.45)" fill="#F99F19"/>
<path id="Intersect_2" fill-rule="evenodd" clip-rule="evenodd" d="M380.779 482.682C375.58 480.265 371.471 475.605 370.025 469.691C368.579 463.777 370.116 457.918 373.678 453.638C378.877 456.055 382.986 460.715 384.432 466.629C385.878 472.543 384.341 478.402 380.779 482.682Z" fill="#F26520"/>
</g>
<g id="chip-wifi">
<g id="wifi">
<path d="M316.767 116.833C318.075 107.763 317.304 102.963 311.489 95.2482C310.872 94.4296 311.084 93.593 311.502 93.3459C311.92 93.0988 312.66 93.0998 313.314 93.9105C319.954 102.142 320.943 107.339 319.281 117.337C319.047 118.337 318.224 118.631 317.628 118.401C316.931 118.131 316.656 117.599 316.767 116.833Z" fill="#FEFBFF"/>
<path d="M306.881 96.94C306.482 97.2623 306.4 98.1803 307.151 99.0198C311.754 104.689 312.512 108.329 311.18 115.497C311.021 116.225 311.397 116.912 312.021 116.981C312.758 117.062 313.236 116.455 313.391 115.74C315.057 108.068 314.169 104.053 308.92 97.4564C308.436 96.8471 307.48 96.4565 306.881 96.94Z" fill="#FEFBFF"/>
<path d="M303.053 100.841C302.426 101.211 302.489 101.986 303.04 102.743C305.906 106.678 306.784 109.039 305.744 113.803C305.52 114.643 305.581 115.469 306.413 115.561C307.246 115.652 307.703 115.131 307.839 114.545C309.231 108.686 307.904 105.848 304.527 101.002C304.239 100.589 303.68 100.47 303.053 100.841Z" fill="#FEFBFF"/>
<path d="M298.721 103.661C298.15 104.257 298.221 104.963 299.046 105.966C300.778 108.101 301.079 109.442 300.536 112.061C300.27 113.221 300.406 114.463 301.371 114.495C302.335 114.528 302.66 114.121 302.858 112.755C303.208 109.194 302.864 107.296 300.761 104.177C300.252 103.36 299.52 103.016 298.721 103.661Z" fill="#FEFBFF"/>
</g>
<g id="chip">
<rect id="Rectangle 344" width="50.0592" height="35.7565" rx="4.64738" transform="matrix(0.978148 -0.207912 0.237516 0.971384 233.106 104.919)" fill="url(#paint5_linear_523_149)"/>
<path id="Vector 9" d="M236.608 116.231L250.948 113.183" stroke="#464544" stroke-width="1.30024" stroke-linecap="square"/>
<path id="Vector 10" d="M239.241 127L253.266 124.018" stroke="#464544" stroke-width="1.30024" stroke-linecap="square"/>
<path id="Vector 11" d="M272.817 119.862L286.807 116.889" stroke="#464544" stroke-width="1.30024" stroke-linecap="square"/>
<path id="Vector 12" d="M269.904 108.856C269.553 108.93 269.337 109.274 269.423 109.622C269.508 109.971 269.862 110.193 270.213 110.119L269.904 108.856ZM284.413 107.1L285.049 106.965L284.74 105.702L284.104 105.837L284.413 107.1ZM270.213 110.119L284.413 107.1L284.104 105.837L269.904 108.856L270.213 110.119Z" fill="#464544"/>
<circle id="Ellipse 12" cx="1.0727" cy="1.0727" r="1.0727" transform="matrix(0.978148 -0.207912 0.237516 0.971384 257.643 104.453)" fill="#464544"/>
<path id="Vector 14" d="M267.151 105.721C264.699 101.467 261.647 99.7653 257.625 100.62C252.729 101.661 252.25 105.658 250.905 113.01C253.906 117.05 254.511 119.441 253.58 123.951C258.898 132.216 261.893 134.473 265.868 133.58C271.115 132.465 271.528 127.732 272.641 119.9C270.132 116.152 269.422 113.941 269.835 109.572" stroke="#464544" stroke-width="1.30024" stroke-linecap="round"/>
</g>
</g>
<g id="Group 345_2">
<g id="nickel_3">
<path d="M90.5651 156.082C90.3841 155.341 90.0455 154.804 89.5493 154.471C89.051 154.129 88.4762 154.028 87.8249 154.166C87.3793 154.261 86.9533 154.454 86.5469 154.747C86.1406 155.039 85.7887 155.499 85.4913 156.126L86.7368 161.22L88.8964 160.761L89.7517 164.258L81.4732 166.018L80.6179 162.52L82.5718 162.105L81.0486 155.875L79.1203 156.285L78.2651 152.787L84.3325 151.497L84.6166 152.659C85.0675 152.107 85.6056 151.634 86.2308 151.242C86.8626 150.839 87.5598 150.556 88.3225 150.394C89.9251 150.054 91.2684 150.238 92.3525 150.948C93.4344 151.649 94.1846 152.855 94.6028 154.565L95.7609 159.301L97.6505 158.9L98.5058 162.398L92.4255 163.69L90.5651 156.082Z" fill="#FFFDFA"/>
<path d="M97.0074 148.803L102.985 147.533L105.363 157.26L107.215 156.867L108.07 160.365L100.241 162.029L99.3859 158.531L101.391 158.105L99.868 151.875L97.8627 152.301L97.0074 148.803Z" fill="#FFFDFA"/>
<path d="M118.256 149.095C117.775 148.713 117.279 148.456 116.769 148.323C116.256 148.181 115.696 148.193 115.087 148.358C114.581 148.43 114.144 148.594 113.774 148.852C113.413 149.108 113.12 149.421 112.895 149.791C112.678 150.159 112.541 150.573 112.482 151.034C112.421 151.485 112.455 151.975 112.584 152.502C112.699 152.971 112.893 153.395 113.166 153.776C113.439 154.156 113.759 154.469 114.125 154.713C114.498 154.947 114.907 155.107 115.351 155.191C115.804 155.274 116.275 155.281 116.763 155.213C117.158 155.094 117.502 154.935 117.796 154.739C118.097 154.531 118.351 154.298 118.559 154.039C118.764 153.772 118.925 153.491 119.042 153.198C119.167 152.894 119.252 152.616 119.299 152.365L123.071 152.583C123.05 153.125 122.927 153.711 122.703 154.34C122.486 154.968 122.147 155.573 121.686 156.155C121.23 156.726 120.645 157.244 119.929 157.71C119.222 158.173 118.367 158.512 117.365 158.725C116.345 158.942 115.362 158.958 114.415 158.774C113.467 158.582 112.606 158.232 111.833 157.725C111.06 157.218 110.392 156.572 109.831 155.787C109.278 155 108.881 154.113 108.639 153.126C108.4 152.147 108.354 151.204 108.502 150.295C108.655 149.376 108.969 148.539 109.443 147.785C109.915 147.022 110.536 146.375 111.308 145.844C112.088 145.311 112.988 144.954 114.008 144.774C114.719 144.586 115.437 144.519 116.162 144.571C116.887 144.623 117.602 144.78 118.306 145.042L120.864 144.498L121.803 148.34L118.256 149.095Z" fill="#FFFDFA"/>
<path d="M120.438 136.84L126.442 135.564L129.241 147.015L131.491 146.536L132.095 145.025L131.24 141.527L138.13 140.062L138.985 143.56L136.594 144.069L134.809 147.443L138.085 149.943L140.296 149.473L141.235 153.315L137.623 154.083L131.918 149.333L129.913 149.759L130.443 151.93L131.806 151.64L132.661 155.138L125.295 156.703L124.44 153.206L126.497 152.768L123.35 139.9L121.294 140.337L120.438 136.84Z" fill="#FFFDFA"/>
<path d="M145.606 146.303L145.741 146.69C145.929 147.053 146.17 147.356 146.463 147.598C146.766 147.838 147.095 148.023 147.451 148.153C147.808 148.283 148.187 148.359 148.589 148.381C148.989 148.395 149.382 148.361 149.767 148.279C150.153 148.197 150.512 148.098 150.844 147.983C151.183 147.857 151.506 147.721 151.813 147.575C152.118 147.421 152.412 147.26 152.696 147.092C152.977 146.916 153.262 146.735 153.55 146.548L155.604 148.865C155.188 149.266 154.801 149.617 154.441 149.917C154.088 150.207 153.723 150.464 153.345 150.688C152.967 150.911 152.554 151.102 152.105 151.26C151.659 151.426 151.128 151.575 150.511 151.706C149.354 151.952 148.28 151.984 147.288 151.8C146.295 151.609 145.41 151.255 144.635 150.739C143.869 150.222 143.216 149.564 142.678 148.765C142.149 147.964 141.766 147.079 141.529 146.108C141.291 145.138 141.236 144.192 141.362 143.27C141.497 142.346 141.796 141.504 142.259 140.743C142.72 139.973 143.334 139.314 144.101 138.766C144.869 138.218 145.775 137.833 146.821 137.611C147.866 137.389 148.835 137.366 149.725 137.544C150.623 137.711 151.425 138.042 152.132 138.537C152.837 139.022 153.44 139.646 153.942 140.408C154.441 141.161 154.82 142.008 155.076 142.947C155.154 143.154 155.219 143.364 155.271 143.577C155.329 143.779 155.377 143.993 155.414 144.218L145.606 146.303ZM147.498 140.824C147.018 140.926 146.622 141.073 146.308 141.265C146.001 141.447 145.756 141.664 145.575 141.918C145.392 142.163 145.262 142.427 145.188 142.712C145.113 142.996 145.071 143.287 145.063 143.585L150.629 142.401C150.498 142.125 150.346 141.871 150.172 141.639C149.998 141.407 149.789 141.215 149.544 141.061C149.299 140.907 149.009 140.808 148.673 140.762C148.344 140.707 147.953 140.728 147.498 140.824Z" fill="#FFFDFA"/>
<path d="M153.681 129.774L159.684 128.498L163.686 144.864L165.743 144.426L166.598 147.924L158.538 149.637L157.683 146.14L159.739 145.702L156.593 132.834L154.536 133.272L153.681 129.774Z" fill="#FFFDFA"/>
</g>
<path id="nickel_4" d="M97.7158 143.24C97.671 143.536 97.6871 143.842 97.7641 144.157C97.8411 144.472 97.9696 144.758 98.1497 145.015C98.3363 145.262 98.5574 145.465 98.813 145.626C99.0686 145.786 99.3481 145.897 99.6515 145.958C99.9634 146.017 100.282 146.012 100.608 145.943C100.916 145.877 101.193 145.756 101.438 145.578C101.683 145.401 101.884 145.188 102.04 144.94C102.195 144.692 102.3 144.419 102.353 144.121C102.405 143.815 102.392 143.504 102.315 143.189C102.238 142.874 102.106 142.594 101.919 142.347C101.731 142.091 101.509 141.883 101.253 141.723C100.997 141.562 100.718 141.452 100.414 141.391C100.111 141.33 99.8052 141.332 99.4967 141.398C99.171 141.467 98.8813 141.591 98.6277 141.771C98.3826 141.948 98.1821 142.161 98.0264 142.409C97.8707 142.657 97.7672 142.934 97.7158 143.24Z" fill="#FDF1DE"/>
</g>
</g>
</g>
<defs>
<filter id="filter0_bf_523_149" x="58.5946" y="615.223" width="574.512" height="150.578" filterUnits="userSpaceOnUse" color-interpolation-filters="sRGB">
<feFlood flood-opacity="0" result="BackgroundImageFix"/>
<feGaussianBlur in="BackgroundImageFix" stdDeviation="19.6909"/>
<feComposite in2="SourceAlpha" operator="in" result="effect1_backgroundBlur_523_149"/>
<feBlend mode="normal" in="SourceGraphic" in2="effect1_backgroundBlur_523_149" result="shape"/>
<feGaussianBlur stdDeviation="23.1658" result="effect2_foregroundBlur_523_149"/>
</filter>
<filter id="filter1_bi_523_149" x="225.554" y="86.3905" width="499.979" height="583.272" filterUnits="userSpaceOnUse" color-interpolation-filters="sRGB">
<feFlood flood-opacity="0" result="BackgroundImageFix"/>
<feGaussianBlur in="BackgroundImageFix" stdDeviation="22.6549"/>
<feComposite in2="SourceAlpha" operator="in" result="effect1_backgroundBlur_523_149"/>
<feBlend mode="normal" in="SourceGraphic" in2="effect1_backgroundBlur_523_149" result="shape"/>
<feColorMatrix in="SourceAlpha" type="matrix" values="0 0 0 0 0 0 0 0 0 0 0 0 0 0 0 0 0 0 127 0" result="hardAlpha"/>
<feOffset dx="1.94185" dy="1.94185"/>
<feGaussianBlur stdDeviation="1.94185"/>
<feComposite in2="hardAlpha" operator="arithmetic" k2="-1" k3="1"/>
<feColorMatrix type="matrix" values="0 0 0 0 1 0 0 0 0 1 0 0 0 0 1 0 0 0 0.25 0"/>
<feBlend mode="normal" in2="shape" result="effect2_innerShadow_523_149"/>
</filter>
<filter id="filter2_ddd_523_149" x="12.1267" y="34.058" width="458.605" height="573.731" filterUnits="userSpaceOnUse" color-interpolation-filters="sRGB">
<feFlood flood-opacity="0" result="BackgroundImageFix"/>
<feColorMatrix in="SourceAlpha" type="matrix" values="0 0 0 0 0 0 0 0 0 0 0 0 0 0 0 0 0 0 127 0" result="hardAlpha"/>
<feOffset dy="2.67529"/>
<feGaussianBlur stdDeviation="2.09827"/>
<feColorMatrix type="matrix" values="0 0 0 0 0.976471 0 0 0 0 0.741176 0 0 0 0 0.360784 0 0 0 0.03 0"/>
<feBlend mode="normal" in2="BackgroundImageFix" result="effect1_dropShadow_523_149"/>
<feColorMatrix in="SourceAlpha" type="matrix" values="0 0 0 0 0 0 0 0 0 0 0 0 0 0 0 0 0 0 127 0" result="hardAlpha"/>
<feOffset dy="7.39684"/>
<feGaussianBlur stdDeviation="5.80144"/>
<feColorMatrix type="matrix" values="0 0 0 0 0.976471 0 0 0 0 0.741176 0 0 0 0 0.360784 0 0 0 0.05 0"/>
<feBlend mode="normal" in2="effect1_dropShadow_523_149" result="effect2_dropShadow_523_149"/>
<feColorMatrix in="SourceAlpha" type="matrix" values="0 0 0 0 0 0 0 0 0 0 0 0 0 0 0 0 0 0 127 0" result="hardAlpha"/>
<feOffset dy="17.8087"/>
<feGaussianBlur stdDeviation="13.9676"/>
<feColorMatrix type="matrix" values="0 0 0 0 0.976471 0 0 0 0 0.741176 0 0 0 0 0.360784 0 0 0 0.07 0"/>
<feBlend mode="normal" in2="effect2_dropShadow_523_149" result="effect3_dropShadow_523_149"/>
<feBlend mode="normal" in="SourceGraphic" in2="effect3_dropShadow_523_149" result="shape"/>
</filter>
<filter id="filter3_bi_523_149" x="-1.92775" y="1.83983" width="486.714" height="602.551" filterUnits="userSpaceOnUse" color-interpolation-filters="sRGB">
<feFlood flood-opacity="0" result="BackgroundImageFix"/>
<feGaussianBlur in="BackgroundImageFix" stdDeviation="22.7542"/>
<feComposite in2="SourceAlpha" operator="in" result="effect1_backgroundBlur_523_149"/>
<feBlend mode="normal" in="SourceGraphic" in2="effect1_backgroundBlur_523_149" result="shape"/>
<feColorMatrix in="SourceAlpha" type="matrix" values="0 0 0 0 0 0 0 0 0 0 0 0 0 0 0 0 0 0 127 0" result="hardAlpha"/>
<feOffset dx="1.95036" dy="1.95036"/>
<feGaussianBlur stdDeviation="1.95036"/>
<feComposite in2="hardAlpha" operator="arithmetic" k2="-1" k3="1"/>
<feColorMatrix type="matrix" values="0 0 0 0 1 0 0 0 0 1 0 0 0 0 1 0 0 0 0.25 0"/>
<feBlend mode="normal" in2="shape" result="effect2_innerShadow_523_149"/>
</filter>
<radialGradient id="paint0_radial_523_149" cx="0" cy="0" r="1" gradientUnits="userSpaceOnUse" gradientTransform="translate(338.007 690.511) rotate(180) scale(249.889 2221.37)">
<stop stop-color="#8A8A8A" stop-opacity="0.2"/>
<stop offset="1" stop-color="#8A8A8A" stop-opacity="0"/>
</radialGradient>
<linearGradient id="paint1_linear_523_149" x1="415.619" y1="1.91991" x2="213.833" y2="393.484" gradientUnits="userSpaceOnUse">
<stop stop-color="#FF8400"/>
<stop offset="1" stop-color="#FFAE56"/>
</linearGradient>
<linearGradient id="paint2_linear_523_149" x1="53.7244" y1="67.3173" x2="81.8811" y2="3.88369" gradientUnits="userSpaceOnUse">
<stop stop-color="#F6F3F7"/>
<stop offset="1" stop-color="#D6D6D6"/>
</linearGradient>
<linearGradient id="paint3_linear_523_149" x1="558.618" y1="235.59" x2="510.395" y2="192.357" gradientUnits="userSpaceOnUse">
<stop stop-color="#F5F5F5"/>
<stop offset="1" stop-color="#D6D6D6"/>
</linearGradient>
<linearGradient id="paint4_linear_523_149" x1="417.44" y1="1.92833" x2="214.77" y2="395.208" gradientUnits="userSpaceOnUse">
<stop stop-color="#FF8400"/>
<stop offset="1" stop-color="#FFAE56"/>
</linearGradient>
<linearGradient id="paint5_linear_523_149" x1="25.0296" y1="0" x2="25.0296" y2="35.7565" gradientUnits="userSpaceOnUse">
<stop stop-color="#C2C2C2"/>
<stop offset="1" stop-color="#D6D6D6"/>
</linearGradient>
</defs>
</svg>
