<svg width="67" height="56" viewBox="0 0 67 56" fill="none" xmlns="http://www.w3.org/2000/svg">
<path d="M36.6981 29.1267C36.6981 26.9007 36.1097 25.1609 34.9328 23.9072C33.7558 22.628 32.1951 21.9883 30.2506 21.9883C28.9202 21.9883 27.5769 22.2826 26.2209 22.871C24.8649 23.4595 23.5472 24.5597 22.268 26.1715V41.4844H28.7155V52H4V41.4844H9.83347V22.7559H4.07676V12.2403H22.1912V15.7327C23.8543 14.4278 25.7092 13.4044 27.756 12.6625C29.8285 11.8949 32.0032 11.5111 34.2803 11.5111C39.0648 11.5111 42.7491 12.8543 45.3332 15.5408C47.9173 18.2017 49.2094 22.1035 49.2094 27.2461V41.4844H54.851V52H36.6981V29.1267Z" fill="#363534"/>
<path d="M47.3958 11.4837C47.3958 10.4603 47.5748 9.50086 47.933 8.60537C48.3168 7.70988 48.8413 6.91674 49.5065 6.22593C50.1974 5.53512 51.0033 4.99783 51.9244 4.61405C52.8454 4.20468 53.8305 4 54.8795 4C55.8773 4 56.824 4.20468 57.7195 4.61405C58.6405 4.99783 59.4337 5.53512 60.0989 6.22593C60.7897 6.89115 61.327 7.6843 61.7108 8.60537C62.0946 9.52645 62.2865 10.4859 62.2865 11.4837C62.2865 12.5071 62.0818 13.4794 61.6724 14.4005C61.2886 15.3215 60.7641 16.1147 60.0989 16.7799C59.4337 17.4451 58.6533 17.9696 57.7578 18.3534C56.8624 18.7628 55.9029 18.9675 54.8795 18.9675C53.8049 18.9675 52.8071 18.7628 51.886 18.3534C50.9905 17.9696 50.1974 17.4451 49.5065 16.7799C48.8413 16.1147 48.3168 15.3343 47.933 14.4388C47.5748 13.5178 47.3958 12.5327 47.3958 11.4837Z" fill="url(#paint0_linear_223_5)"/>
<defs>
<linearGradient id="paint0_linear_223_5" x1="60.6386" y1="4.09693" x2="48.3814" y2="19.1075" gradientUnits="userSpaceOnUse">
<stop stop-color="#FF8400"/>
<stop offset="1" stop-color="#FFAE56"/>
</linearGradient>
</defs>
</svg>
