<svg width="88" height="72" viewBox="0 0 88 72" fill="none" xmlns="http://www.w3.org/2000/svg">
<path d="M49.0472 37.6899C49.0472 34.351 48.1645 31.7413 46.3991 29.8608C44.6337 27.9419 42.2927 26.9824 39.3759 26.9824C37.3803 26.9824 35.3654 27.4238 33.3314 28.3065C31.2973 29.1892 29.3209 30.8394 27.402 33.2572V56.2265H37.0732V71.9999H0V56.2265H8.75021V28.1338H0.115134V12.3604H27.2868V17.599C29.7814 15.6417 32.5638 14.1066 35.6341 12.9936C38.7427 11.8423 42.0048 11.2666 45.4205 11.2666C52.5972 11.2666 58.1236 13.2815 61.9998 17.3112C65.876 21.3025 67.8141 27.1551 67.8141 34.8691V56.2265H76.2765V71.9999H49.0472V37.6899Z" fill="#FFFDFA"/>
<path d="M65.0937 11.2256C65.0937 9.69047 65.3623 8.25129 65.8996 6.90806C66.4753 5.56483 67.262 4.3751 68.2599 3.33889C69.2961 2.30269 70.505 1.49675 71.8866 0.921074C73.2682 0.307024 74.7458 0 76.3193 0C77.816 0 79.236 0.307024 80.5792 0.921074C81.9608 1.49675 83.1506 2.30269 84.1484 3.33889C85.1846 4.33673 85.9905 5.52645 86.5662 6.90806C87.1419 8.28967 87.4297 9.72885 87.4297 11.2256C87.4297 12.7607 87.1227 14.2191 86.5086 15.6007C85.933 16.9823 85.1462 18.172 84.1484 19.1699C83.1506 20.1677 81.98 20.9544 80.6368 21.5301C79.2936 22.1442 77.8544 22.4512 76.3193 22.4512C74.7074 22.4512 73.2106 22.1442 71.829 21.5301C70.4858 20.9544 69.2961 20.1677 68.2599 19.1699C67.262 18.172 66.4753 17.0015 65.8996 15.6583C65.3623 14.2767 65.0937 12.7991 65.0937 11.2256Z" fill="#FFFDFA"/>
</svg>
